SplineFontDB: 3.2
FontName: FdSymbolE-Demi
FullName: FdSymbolE-Demi
FamilyName: FdSymbolE
Weight: Demi
Copyright: Copyright (c) 2012, Michael Ummels. This Font Software is licensed under the SIL Open Font License, Version 1.1.
Version: 1.008
ItalicAngle: 0
UnderlinePosition: -100
UnderlineWidth: 50
Ascent: 800
Descent: 200
InvalidEm: 0
LayerCount: 2
Layer: 0 0 "Back" 1
Layer: 1 0 "Fore" 0
OS2Version: 0
OS2_WeightWidthSlopeOnly: 0
OS2_UseTypoMetrics: 0
CreationTime: 1739777137
ModificationTime: 1739777137
OS2TypoAscent: 0
OS2TypoAOffset: 1
OS2TypoDescent: 0
OS2TypoDOffset: 1
OS2TypoLinegap: 0
OS2WinAscent: 0
OS2WinAOffset: 1
OS2WinDescent: 0
OS2WinDOffset: 1
HheadAscent: 0
HheadAOffset: 1
HheadDescent: 0
HheadDOffset: 1
OS2Vendor: 'PfEd'
DEI: 91125
Encoding: Custom
UnicodeInterp: none
NameList: AGL For New Fonts
DisplaySize: -48
AntiAlias: 1
FitToEm: 0
BeginPrivate: 2
BlueValues 31 [-10 0 546 556 707 717 754 764]
OtherBlues 11 [-230 -220]
EndPrivate
BeginChars: 256 128

StartChar: sym090
Encoding: 0 -1 0
Width: 1250
Flags: HW
HStem: 263 74<90 588 662 1160>
VStem: 588 74<-235 263 337 835>
LayerCount: 2
Fore
SplineSet
588 835 m 1
 662 835 l 1
 662 337 l 1
 1160 337 l 1
 1160 263 l 1
 662 263 l 1
 662 -235 l 1
 588 -235 l 1
 588 263 l 1
 90 263 l 1
 90 337 l 1
 588 337 l 1
 588 835 l 1
EndSplineSet
EndChar

StartChar: sym090.disp
Encoding: 1 -1 1
Width: 1678
Flags: HW
HStem: 263 74<90 802 876 1588>
VStem: 802 74<-449 263 337 1049>
LayerCount: 2
Fore
SplineSet
802 1049 m 1
 876 1049 l 1
 876 337 l 1
 1588 337 l 1
 1588 263 l 1
 876 263 l 1
 876 -449 l 1
 802 -449 l 1
 802 263 l 1
 90 263 l 1
 90 337 l 1
 802 337 l 1
 802 1049 l 1
EndSplineSet
EndChar

StartChar: uni2A09
Encoding: 2 10761 2
Width: 1250
Flags: HW
LayerCount: 2
Fore
SplineSet
1160 -183 m 1
 1108 -235 l 1
 625 248 l 1
 142 -235 l 1
 90 -183 l 1
 573 300 l 1
 90 783 l 1
 142 835 l 1
 625 352 l 1
 1108 835 l 1
 1160 783 l 1
 677 300 l 1
 1160 -183 l 1
EndSplineSet
EndChar

StartChar: uni2A09.disp
Encoding: 3 -1 3
Width: 1678
Flags: HW
LayerCount: 2
Fore
SplineSet
1588 -397 m 1
 1536 -449 l 1
 839 248 l 1
 142 -449 l 1
 90 -397 l 1
 787 300 l 1
 90 997 l 1
 142 1049 l 1
 839 352 l 1
 1536 1049 l 1
 1588 997 l 1
 891 300 l 1
 1588 -397 l 1
EndSplineSet
EndChar

StartChar: uni22C0
Encoding: 4 8896 4
Width: 900
Flags: HW
LayerCount: 2
Fore
SplineSet
805 -213 m 1
 734 -235 l 1
 450 674 l 1
 166 -235 l 1
 95 -213 l 1
 423 835 l 1
 477 835 l 1
 805 -213 l 1
EndSplineSet
EndChar

StartChar: uni22C0.disp
Encoding: 5 -1 5
Width: 1188
Flags: HW
LayerCount: 2
Fore
SplineSet
1093 -426 m 1
 1022 -449 l 1
 594 890 l 1
 166 -449 l 1
 95 -426 l 1
 567 1049 l 1
 621 1049 l 1
 1093 -426 l 1
EndSplineSet
EndChar

StartChar: uni22C1
Encoding: 6 8897 6
Width: 900
Flags: HW
LayerCount: 2
Fore
SplineSet
95 813 m 1
 166 835 l 1
 450 -74 l 1
 734 835 l 1
 805 813 l 1
 477 -235 l 1
 423 -235 l 1
 95 813 l 1
EndSplineSet
EndChar

StartChar: uni22C1.disp
Encoding: 7 -1 7
Width: 1188
Flags: HW
LayerCount: 2
Fore
SplineSet
95 1026 m 1
 166 1049 l 1
 594 -290 l 1
 1022 1049 l 1
 1093 1026 l 1
 621 -449 l 1
 567 -449 l 1
 95 1026 l 1
EndSplineSet
EndChar

StartChar: sym091
Encoding: 8 -1 8
Width: 900
Flags: HW
HStem: -51 167<411.75 488.25>
VStem: 366 168<-5.31264 70.3314>
LayerCount: 2
Fore
SplineSet
805 -213 m 1
 734 -235 l 1
 450 674 l 1
 166 -235 l 1
 95 -213 l 1
 423 835 l 1
 477 835 l 1
 805 -213 l 1
534 33 m 0
 534 16 515 -3 500 -18 c 0
 485 -33 467 -51 450 -51 c 0
 433 -51 415 -33 400 -18 c 0
 385 -3 366 16 366 33 c 0
 366 49 385 68 400 83 c 0
 415 98 433 116 450 116 c 0
 467 116 485 98 500 83 c 0
 515 68 534 49 534 33 c 0
EndSplineSet
EndChar

StartChar: sym091.disp
Encoding: 9 -1 9
Width: 1188
Flags: HW
HStem: -158 168<556.513 631.487>
VStem: 510 168<-112.313 -36.6686>
LayerCount: 2
Fore
SplineSet
1093 -426 m 1
 1022 -449 l 1
 594 890 l 1
 166 -449 l 1
 95 -426 l 1
 567 1049 l 1
 621 1049 l 1
 1093 -426 l 1
678 -74 m 0
 678 -91 659 -110 644 -125 c 0
 629 -140 611 -158 594 -158 c 0
 577 -158 559 -140 544 -125 c 0
 529 -110 510 -91 510 -74 c 0
 510 -58 529 -39 544 -24 c 0
 559 -9 577 10 594 10 c 0
 611 10 629 -9 644 -24 c 0
 659 -39 678 -58 678 -74 c 0
EndSplineSet
EndChar

StartChar: sym092
Encoding: 10 -1 10
Width: 900
Flags: HW
HStem: 484 167<411.75 488.25>
VStem: 366 168<529.687 605.331>
LayerCount: 2
Fore
SplineSet
95 813 m 1
 166 835 l 1
 450 -74 l 1
 734 835 l 1
 805 813 l 1
 477 -235 l 1
 423 -235 l 1
 95 813 l 1
534 568 m 0
 534 551 515 532 500 517 c 0
 485 502 467 484 450 484 c 0
 433 484 415 502 400 517 c 0
 385 532 366 551 366 568 c 0
 366 584 385 603 400 618 c 0
 415 633 433 651 450 651 c 0
 467 651 485 633 500 618 c 0
 515 603 534 584 534 568 c 0
EndSplineSet
EndChar

StartChar: sym092.disp
Encoding: 11 -1 11
Width: 1188
Flags: HW
HStem: 590 168<556.513 631.487>
VStem: 510 168<636.669 712.313>
LayerCount: 2
Fore
SplineSet
95 1026 m 1
 166 1049 l 1
 594 -290 l 1
 1022 1049 l 1
 1093 1026 l 1
 621 -449 l 1
 567 -449 l 1
 95 1026 l 1
678 674 m 0
 678 658 659 639 644 624 c 0
 629 609 611 590 594 590 c 0
 577 590 559 609 544 624 c 0
 529 639 510 658 510 674 c 0
 510 691 529 710 544 725 c 0
 559 740 577 758 594 758 c 0
 611 758 629 740 644 725 c 0
 659 710 678 691 678 674 c 0
EndSplineSet
EndChar

StartChar: uni2A07
Encoding: 12 10759 12
Width: 1140
Flags: HW
LayerCount: 2
Fore
SplineSet
1045 -213 m 1
 974 -235 l 1
 690 674 l 1
 609 414 l 1
 805 -213 l 1
 734 -235 l 1
 570 290 l 1
 406 -235 l 1
 335 -213 l 1
 531 414 l 1
 450 674 l 1
 166 -235 l 1
 95 -213 l 1
 423 835 l 1
 477 835 l 1
 570 538 l 1
 663 835 l 1
 717 835 l 1
 1045 -213 l 1
EndSplineSet
EndChar

StartChar: uni2A07.disp
Encoding: 13 -1 13
Width: 1524
Flags: HW
LayerCount: 2
Fore
SplineSet
1429 -426 m 1
 1358 -449 l 1
 930 890 l 1
 801 486 l 1
 1093 -426 l 1
 1022 -449 l 1
 762 364 l 1
 502 -449 l 1
 431 -426 l 1
 723 486 l 1
 594 890 l 1
 166 -449 l 1
 95 -426 l 1
 567 1049 l 1
 621 1049 l 1
 762 608 l 1
 903 1049 l 1
 957 1049 l 1
 1429 -426 l 1
EndSplineSet
EndChar

StartChar: uni2A08
Encoding: 14 10760 14
Width: 1140
Flags: HW
LayerCount: 2
Fore
SplineSet
335 813 m 1
 406 835 l 1
 570 310 l 1
 734 835 l 1
 805 813 l 1
 609 186 l 1
 690 -74 l 1
 974 835 l 1
 1045 813 l 1
 717 -235 l 1
 663 -235 l 1
 570 62 l 1
 477 -235 l 1
 423 -235 l 1
 95 813 l 1
 166 835 l 1
 450 -74 l 1
 531 186 l 1
 335 813 l 1
EndSplineSet
EndChar

StartChar: uni2A08.disp
Encoding: 15 -1 15
Width: 1524
Flags: HW
LayerCount: 2
Fore
SplineSet
431 1026 m 1
 502 1049 l 1
 762 236 l 1
 1022 1049 l 1
 1093 1026 l 1
 801 114 l 1
 930 -290 l 1
 1358 1049 l 1
 1429 1026 l 1
 957 -449 l 1
 903 -449 l 1
 762 -8 l 1
 621 -449 l 1
 567 -449 l 1
 95 1026 l 1
 166 1049 l 1
 594 -290 l 1
 723 114 l 1
 431 1026 l 1
EndSplineSet
EndChar

StartChar: sym093
Encoding: 16 -1 16
Width: 900
Flags: HW
VStem: 413 74<561.525 835>
LayerCount: 2
Fore
SplineSet
450 352 m 1
 407 129 319 -78 152 -235 c 1
 102 -181 l 1
 363 63 413 439 413 798 c 2
 413 835 l 1
 487 835 l 1
 487 798 l 2
 487 439 537 63 798 -181 c 1
 748 -235 l 1
 581 -78 493 129 450 352 c 1
EndSplineSet
EndChar

StartChar: sym093.disp
Encoding: 17 -1 17
Width: 1188
Flags: HW
VStem: 557 74<793.169 1049>
LayerCount: 2
Fore
SplineSet
594 478 m 1
 539 126 413 -205 152 -449 c 1
 102 -395 l 1
 478 -44 557 495 557 1012 c 2
 557 1049 l 1
 631 1049 l 1
 631 1012 l 2
 631 495 710 -44 1086 -395 c 1
 1036 -449 l 1
 775 -205 649 126 594 478 c 1
EndSplineSet
EndChar

StartChar: sym094
Encoding: 18 -1 18
Width: 900
Flags: HW
VStem: 413 74<-235 38.4745>
LayerCount: 2
Fore
SplineSet
450 248 m 1
 493 471 581 678 748 835 c 1
 798 781 l 1
 537 537 487 161 487 -198 c 2
 487 -235 l 1
 413 -235 l 1
 413 -198 l 2
 413 161 363 537 102 781 c 1
 152 835 l 1
 319 678 407 471 450 248 c 1
EndSplineSet
EndChar

StartChar: sym094.disp
Encoding: 19 -1 19
Width: 1188
Flags: HW
VStem: 557 74<-449 -193.169>
LayerCount: 2
Fore
SplineSet
594 122 m 1
 649 474 775 805 1036 1049 c 1
 1086 995 l 1
 710 644 631 105 631 -412 c 2
 631 -449 l 1
 557 -449 l 1
 557 -412 l 2
 557 105 478 644 102 995 c 1
 152 1049 l 1
 413 805 539 474 594 122 c 1
EndSplineSet
EndChar

StartChar: uni22C2
Encoding: 20 8898 20
Width: 900
Flags: HW
HStem: 761 74<336.642 563.358>
VStem: 90 74<-235 609.996> 736 74<-235 609.996>
LayerCount: 2
Fore
SplineSet
736 -235 m 1
 736 521 l 2
 736 663 600 761 450 761 c 0
 300 761 164 663 164 521 c 2
 164 -235 l 1
 90 -235 l 1
 90 521 l 2
 90 703 259 835 450 835 c 0
 641 835 810 703 810 521 c 2
 810 -235 l 1
 736 -235 l 1
EndSplineSet
EndChar

StartChar: uni22C2.disp
Encoding: 21 -1 21
Width: 1188
Flags: HW
HStem: 975 74<449.16 738.84>
VStem: 90 74<-449 721.17> 1024 74<-449 721.17>
LayerCount: 2
Fore
SplineSet
1024 -449 m 1
 1024 607 l 2
 1024 823 821 975 594 975 c 0
 367 975 164 823 164 607 c 2
 164 -449 l 1
 90 -449 l 1
 90 607 l 2
 90 863 326 1049 594 1049 c 0
 862 1049 1098 863 1098 607 c 2
 1098 -449 l 1
 1024 -449 l 1
EndSplineSet
EndChar

StartChar: uni22C3
Encoding: 22 8899 22
Width: 900
Flags: HW
HStem: -235 74<336.642 563.358>
VStem: 90 74<-9.99625 835> 736 74<-9.99625 835>
LayerCount: 2
Fore
SplineSet
164 835 m 1
 164 79 l 2
 164 -63 300 -161 450 -161 c 0
 600 -161 736 -63 736 79 c 2
 736 835 l 1
 810 835 l 1
 810 79 l 2
 810 -103 641 -235 450 -235 c 0
 259 -235 90 -103 90 79 c 2
 90 835 l 1
 164 835 l 1
EndSplineSet
EndChar

StartChar: uni22C3.disp
Encoding: 23 -1 23
Width: 1188
Flags: HW
HStem: -449 74<449.16 738.84>
VStem: 90 74<-121.17 1049> 1024 74<-121.17 1049>
LayerCount: 2
Fore
SplineSet
164 1049 m 1
 164 -7 l 2
 164 -223 367 -375 594 -375 c 0
 821 -375 1024 -223 1024 -7 c 2
 1024 1049 l 1
 1098 1049 l 1
 1098 -7 l 2
 1098 -263 862 -449 594 -449 c 0
 326 -449 90 -263 90 -7 c 2
 90 1049 l 1
 164 1049 l 1
EndSplineSet
EndChar

StartChar: sym095
Encoding: 24 -1 24
Width: 900
Flags: HW
HStem: 82 168<412.513 487.487> 761 74<336.642 563.358>
VStem: 90 74<-235 609.996> 366 168<128.513 204.313> 736 74<-235 609.996>
CounterMasks: 1 38
LayerCount: 2
Fore
SplineSet
736 -235 m 1
 736 521 l 2
 736 663 600 761 450 761 c 0
 300 761 164 663 164 521 c 2
 164 -235 l 1
 90 -235 l 1
 90 521 l 2
 90 703 259 835 450 835 c 0
 641 835 810 703 810 521 c 2
 810 -235 l 1
 736 -235 l 1
534 166 m 0
 534 149 515 131 500 116 c 0
 485 101 467 82 450 82 c 0
 433 82 415 101 400 116 c 0
 385 131 366 149 366 166 c 0
 366 183 385 202 400 217 c 0
 415 232 433 250 450 250 c 0
 467 250 485 232 500 217 c 0
 515 202 534 183 534 166 c 0
EndSplineSet
EndChar

StartChar: sym095.disp
Encoding: 25 -1 25
Width: 1188
Flags: HW
HStem: 29 168<556.513 631.487> 975 74<449.16 738.84>
VStem: 90 74<-449 721.17> 510 168<74.6874 150.487> 1024 74<-449 721.17>
CounterMasks: 1 38
LayerCount: 2
Fore
SplineSet
1024 -449 m 1
 1024 607 l 2
 1024 823 821 975 594 975 c 0
 367 975 164 823 164 607 c 2
 164 -449 l 1
 90 -449 l 1
 90 607 l 2
 90 863 326 1049 594 1049 c 0
 862 1049 1098 863 1098 607 c 2
 1098 -449 l 1
 1024 -449 l 1
678 113 m 0
 678 96 659 77 644 62 c 0
 629 47 611 29 594 29 c 0
 577 29 559 47 544 62 c 0
 529 77 510 96 510 113 c 0
 510 130 529 148 544 163 c 0
 559 178 577 197 594 197 c 0
 611 197 629 178 644 163 c 0
 659 148 678 130 678 113 c 0
EndSplineSet
EndChar

StartChar: uni2A03
Encoding: 26 10755 26
Width: 900
Flags: HW
HStem: -235 74<336.642 563.358> 350 168<412.513 487.487>
VStem: 90 74<-9.99625 835> 366 168<395.687 471.487> 736 74<-9.99625 835>
CounterMasks: 1 38
LayerCount: 2
Fore
SplineSet
164 835 m 1
 164 79 l 2
 164 -63 300 -161 450 -161 c 0
 600 -161 736 -63 736 79 c 2
 736 835 l 1
 810 835 l 1
 810 79 l 2
 810 -103 641 -235 450 -235 c 0
 259 -235 90 -103 90 79 c 2
 90 835 l 1
 164 835 l 1
534 434 m 0
 534 417 515 398 500 383 c 0
 485 368 467 350 450 350 c 0
 433 350 415 368 400 383 c 0
 385 398 366 417 366 434 c 0
 366 451 385 469 400 484 c 0
 415 499 433 518 450 518 c 0
 467 518 485 499 500 484 c 0
 515 469 534 451 534 434 c 0
EndSplineSet
EndChar

StartChar: uni2A03.disp
Encoding: 27 -1 27
Width: 1188
Flags: HW
HStem: -449 74<449.16 738.84> 403 168<556.513 631.487>
VStem: 90 74<-121.17 1049> 510 168<449.513 525.313> 1024 74<-121.17 1049>
CounterMasks: 1 38
LayerCount: 2
Fore
SplineSet
164 1049 m 1
 164 -7 l 2
 164 -223 367 -375 594 -375 c 0
 821 -375 1024 -223 1024 -7 c 2
 1024 1049 l 1
 1098 1049 l 1
 1098 -7 l 2
 1098 -263 862 -449 594 -449 c 0
 326 -449 90 -263 90 -7 c 2
 90 1049 l 1
 164 1049 l 1
678 487 m 0
 678 470 659 452 644 437 c 0
 629 422 611 403 594 403 c 0
 577 403 559 422 544 437 c 0
 529 452 510 470 510 487 c 0
 510 504 529 523 544 538 c 0
 559 553 577 571 594 571 c 0
 611 571 629 553 644 538 c 0
 659 523 678 504 678 487 c 0
EndSplineSet
EndChar

StartChar: sym096
Encoding: 28 -1 28
Width: 900
Flags: HW
HStem: 173 74<270 413 487 630> 761 74<336.642 563.358>
VStem: 90 74<-235 609.996> 413 74<30 173 247 390> 736 74<-235 609.996>
CounterMasks: 1 38
LayerCount: 2
Fore
SplineSet
736 -235 m 1
 736 521 l 2
 736 663 600 761 450 761 c 0
 300 761 164 663 164 521 c 2
 164 -235 l 1
 90 -235 l 1
 90 521 l 2
 90 703 259 835 450 835 c 0
 641 835 810 703 810 521 c 2
 810 -235 l 1
 736 -235 l 1
413 390 m 1
 487 390 l 1
 487 247 l 1
 630 247 l 1
 630 173 l 1
 487 173 l 1
 487 30 l 1
 413 30 l 1
 413 173 l 1
 270 173 l 1
 270 247 l 1
 413 247 l 1
 413 390 l 1
EndSplineSet
EndChar

StartChar: sym096.disp
Encoding: 29 -1 29
Width: 1188
Flags: HW
HStem: 137 74<342 557 631 846> 975 74<449.16 738.84>
VStem: 90 74<-449 721.17> 557 74<-78 137 211 426> 1024 74<-449 721.17>
CounterMasks: 1 38
LayerCount: 2
Fore
SplineSet
1024 -449 m 1
 1024 607 l 2
 1024 823 821 975 594 975 c 0
 367 975 164 823 164 607 c 2
 164 -449 l 1
 90 -449 l 1
 90 607 l 2
 90 863 326 1049 594 1049 c 0
 862 1049 1098 863 1098 607 c 2
 1098 -449 l 1
 1024 -449 l 1
557 426 m 1
 631 426 l 1
 631 211 l 1
 846 211 l 1
 846 137 l 1
 631 137 l 1
 631 -78 l 1
 557 -78 l 1
 557 137 l 1
 342 137 l 1
 342 211 l 1
 557 211 l 1
 557 426 l 1
EndSplineSet
EndChar

StartChar: uni2A04
Encoding: 30 10756 30
Width: 900
Flags: HW
HStem: -235 74<336.642 563.358> 353 74<270 413 487 630>
VStem: 90 74<-9.99625 835> 413 74<210 353 427 570> 736 74<-9.99625 835>
CounterMasks: 1 38
LayerCount: 2
Fore
SplineSet
164 835 m 1
 164 79 l 2
 164 -63 300 -161 450 -161 c 0
 600 -161 736 -63 736 79 c 2
 736 835 l 1
 810 835 l 1
 810 79 l 2
 810 -103 641 -235 450 -235 c 0
 259 -235 90 -103 90 79 c 2
 90 835 l 1
 164 835 l 1
413 570 m 1
 487 570 l 1
 487 427 l 1
 630 427 l 1
 630 353 l 1
 487 353 l 1
 487 210 l 1
 413 210 l 1
 413 353 l 1
 270 353 l 1
 270 427 l 1
 413 427 l 1
 413 570 l 1
EndSplineSet
EndChar

StartChar: uni2A04.disp
Encoding: 31 -1 31
Width: 1188
Flags: HW
HStem: -449 74<449.16 738.84> 389 74<342 557 631 846>
VStem: 90 74<-121.17 1049> 557 74<174 389 463 678> 1024 74<-121.17 1049>
CounterMasks: 1 38
LayerCount: 2
Fore
SplineSet
164 1049 m 1
 164 -7 l 2
 164 -223 367 -375 594 -375 c 0
 821 -375 1024 -223 1024 -7 c 2
 1024 1049 l 1
 1098 1049 l 1
 1098 -7 l 2
 1098 -263 862 -449 594 -449 c 0
 326 -449 90 -263 90 -7 c 2
 90 1049 l 1
 164 1049 l 1
557 678 m 1
 631 678 l 1
 631 463 l 1
 846 463 l 1
 846 389 l 1
 631 389 l 1
 631 174 l 1
 557 174 l 1
 557 389 l 1
 342 389 l 1
 342 463 l 1
 557 463 l 1
 557 678 l 1
EndSplineSet
EndChar

StartChar: uni2A05
Encoding: 32 10757 32
Width: 900
Flags: HW
HStem: 761 74<164 736>
VStem: 90 74<-235 761> 736 74<-235 761>
LayerCount: 2
Fore
SplineSet
164 -235 m 1
 90 -235 l 1
 90 835 l 1
 810 835 l 1
 810 -235 l 1
 736 -235 l 1
 736 761 l 1
 164 761 l 1
 164 -235 l 1
EndSplineSet
EndChar

StartChar: uni2A05.disp
Encoding: 33 -1 33
Width: 1188
Flags: HW
HStem: 975 74<164 1024>
VStem: 90 74<-449 975> 1024 74<-449 975>
LayerCount: 2
Fore
SplineSet
164 -449 m 1
 90 -449 l 1
 90 1049 l 1
 1098 1049 l 1
 1098 -449 l 1
 1024 -449 l 1
 1024 975 l 1
 164 975 l 1
 164 -449 l 1
EndSplineSet
EndChar

StartChar: uni2A06
Encoding: 34 10758 34
Width: 900
Flags: HW
HStem: -235 74<164 736>
VStem: 90 74<-161 835> 736 74<-161 835>
LayerCount: 2
Fore
SplineSet
90 835 m 1
 164 835 l 1
 164 -161 l 1
 736 -161 l 1
 736 835 l 1
 810 835 l 1
 810 -235 l 1
 90 -235 l 1
 90 835 l 1
EndSplineSet
EndChar

StartChar: uni2A06.disp
Encoding: 35 -1 35
Width: 1188
Flags: HW
HStem: -449 74<164 1024>
VStem: 90 74<-375 1049> 1024 74<-375 1049>
LayerCount: 2
Fore
SplineSet
90 1049 m 1
 164 1049 l 1
 164 -375 l 1
 1024 -375 l 1
 1024 1049 l 1
 1098 1049 l 1
 1098 -449 l 1
 90 -449 l 1
 90 1049 l 1
EndSplineSet
EndChar

StartChar: sym097
Encoding: 36 -1 36
Width: 900
Flags: HW
HStem: 82 168<412.513 487.487> 761 74<164 736>
VStem: 90 74<-235 761> 366 168<128.513 204.313> 736 74<-235 761>
CounterMasks: 1 38
LayerCount: 2
Fore
SplineSet
164 -235 m 1
 90 -235 l 1
 90 835 l 1
 810 835 l 1
 810 -235 l 1
 736 -235 l 1
 736 761 l 1
 164 761 l 1
 164 -235 l 1
534 166 m 0
 534 149 515 131 500 116 c 0
 485 101 467 82 450 82 c 0
 433 82 415 101 400 116 c 0
 385 131 366 149 366 166 c 0
 366 183 385 202 400 217 c 0
 415 232 433 250 450 250 c 0
 467 250 485 232 500 217 c 0
 515 202 534 183 534 166 c 0
EndSplineSet
EndChar

StartChar: sym097.disp
Encoding: 37 -1 37
Width: 1188
Flags: HW
HStem: 29 168<556.513 631.487> 975 74<164 1024>
VStem: 90 74<-449 975> 510 168<74.6874 150.487> 1024 74<-449 975>
CounterMasks: 1 38
LayerCount: 2
Fore
SplineSet
164 -449 m 1
 90 -449 l 1
 90 1049 l 1
 1098 1049 l 1
 1098 -449 l 1
 1024 -449 l 1
 1024 975 l 1
 164 975 l 1
 164 -449 l 1
678 113 m 0
 678 96 659 77 644 62 c 0
 629 47 611 29 594 29 c 0
 577 29 559 47 544 62 c 0
 529 77 510 96 510 113 c 0
 510 130 529 148 544 163 c 0
 559 178 577 197 594 197 c 0
 611 197 629 178 644 163 c 0
 659 148 678 130 678 113 c 0
EndSplineSet
EndChar

StartChar: sym098
Encoding: 38 -1 38
Width: 900
Flags: HW
HStem: -235 74<164 736> 350 168<412.513 487.487>
VStem: 90 74<-161 835> 366 168<395.687 471.487> 736 74<-161 835>
CounterMasks: 1 38
LayerCount: 2
Fore
SplineSet
90 835 m 1
 164 835 l 1
 164 -161 l 1
 736 -161 l 1
 736 835 l 1
 810 835 l 1
 810 -235 l 1
 90 -235 l 1
 90 835 l 1
534 434 m 0
 534 417 515 398 500 383 c 0
 485 368 467 350 450 350 c 0
 433 350 415 368 400 383 c 0
 385 398 366 417 366 434 c 0
 366 451 385 469 400 484 c 0
 415 499 433 518 450 518 c 0
 467 518 485 499 500 484 c 0
 515 469 534 451 534 434 c 0
EndSplineSet
EndChar

StartChar: sym098.disp
Encoding: 39 -1 39
Width: 1188
Flags: HW
HStem: -449 74<164 1024> 403 168<556.513 631.487>
VStem: 90 74<-375 1049> 510 168<449.513 525.313> 1024 74<-375 1049>
CounterMasks: 1 38
LayerCount: 2
Fore
SplineSet
90 1049 m 1
 164 1049 l 1
 164 -375 l 1
 1024 -375 l 1
 1024 1049 l 1
 1098 1049 l 1
 1098 -449 l 1
 90 -449 l 1
 90 1049 l 1
678 487 m 0
 678 470 659 452 644 437 c 0
 629 422 611 403 594 403 c 0
 577 403 559 422 544 437 c 0
 529 452 510 470 510 487 c 0
 510 504 529 523 544 538 c 0
 559 553 577 571 594 571 c 0
 611 571 629 553 644 538 c 0
 659 523 678 504 678 487 c 0
EndSplineSet
EndChar

StartChar: sym099
Encoding: 40 -1 40
Width: 900
Flags: HW
HStem: 173 74<270 413 487 630> 761 74<164 736>
VStem: 90 74<-235 761> 413 74<30 173 247 390> 736 74<-235 761>
CounterMasks: 1 38
LayerCount: 2
Fore
SplineSet
164 -235 m 1
 90 -235 l 1
 90 835 l 1
 810 835 l 1
 810 -235 l 1
 736 -235 l 1
 736 761 l 1
 164 761 l 1
 164 -235 l 1
413 390 m 1
 487 390 l 1
 487 247 l 1
 630 247 l 1
 630 173 l 1
 487 173 l 1
 487 30 l 1
 413 30 l 1
 413 173 l 1
 270 173 l 1
 270 247 l 1
 413 247 l 1
 413 390 l 1
EndSplineSet
EndChar

StartChar: sym099.disp
Encoding: 41 -1 41
Width: 1188
Flags: HW
HStem: 137 74<342 557 631 846> 975 74<164 1024>
VStem: 90 74<-449 975> 557 74<-78 137 211 426> 1024 74<-449 975>
CounterMasks: 1 38
LayerCount: 2
Fore
SplineSet
164 -449 m 1
 90 -449 l 1
 90 1049 l 1
 1098 1049 l 1
 1098 -449 l 1
 1024 -449 l 1
 1024 975 l 1
 164 975 l 1
 164 -449 l 1
557 426 m 1
 631 426 l 1
 631 211 l 1
 846 211 l 1
 846 137 l 1
 631 137 l 1
 631 -78 l 1
 557 -78 l 1
 557 137 l 1
 342 137 l 1
 342 211 l 1
 557 211 l 1
 557 426 l 1
EndSplineSet
EndChar

StartChar: sym09A
Encoding: 42 -1 42
Width: 900
Flags: HW
HStem: -235 74<164 736> 353 74<270 413 487 630>
VStem: 90 74<-161 835> 413 74<210 353 427 570> 736 74<-161 835>
CounterMasks: 1 38
LayerCount: 2
Fore
SplineSet
90 835 m 1
 164 835 l 1
 164 -161 l 1
 736 -161 l 1
 736 835 l 1
 810 835 l 1
 810 -235 l 1
 90 -235 l 1
 90 835 l 1
413 570 m 1
 487 570 l 1
 487 427 l 1
 630 427 l 1
 630 353 l 1
 487 353 l 1
 487 210 l 1
 413 210 l 1
 413 353 l 1
 270 353 l 1
 270 427 l 1
 413 427 l 1
 413 570 l 1
EndSplineSet
EndChar

StartChar: sym09A.disp
Encoding: 43 -1 43
Width: 1188
Flags: HW
HStem: -449 74<164 1024> 389 74<342 557 631 846>
VStem: 90 74<-375 1049> 557 74<174 389 463 678> 1024 74<-375 1049>
CounterMasks: 1 38
LayerCount: 2
Fore
SplineSet
90 1049 m 1
 164 1049 l 1
 164 -375 l 1
 1024 -375 l 1
 1024 1049 l 1
 1098 1049 l 1
 1098 -449 l 1
 90 -449 l 1
 90 1049 l 1
557 678 m 1
 631 678 l 1
 631 463 l 1
 846 463 l 1
 846 389 l 1
 631 389 l 1
 631 174 l 1
 557 174 l 1
 557 389 l 1
 342 389 l 1
 342 463 l 1
 557 463 l 1
 557 678 l 1
EndSplineSet
EndChar

StartChar: uni2A01
Encoding: 44 10753 44
Width: 1250
Flags: HW
HStem: -235 76<491.453 588 662 758.547> 263 74<166 588 662 1084> 759 76<491.453 588 662 758.547>
VStem: 90 76<166.453 263 337 433.547> 588 74<-159 263 337 759> 1084 76<166.453 263 337 433.547>
CounterMasks: 1 fc
LayerCount: 2
Fore
SplineSet
662 337 m 1
 1084 337 l 1
 1066 562 887 741 662 759 c 1
 662 337 l 1
588 337 m 1
 588 759 l 1
 363 741 184 562 166 337 c 1
 588 337 l 1
662 263 m 1
 662 -159 l 1
 887 -141 1066 38 1084 263 c 1
 662 263 l 1
588 263 m 1
 166 263 l 1
 184 38 363 -141 588 -159 c 1
 588 263 l 1
625 835 m 0
 920 835 1160 595 1160 300 c 0
 1160 5 920 -235 625 -235 c 0
 330 -235 90 5 90 300 c 0
 90 595 330 835 625 835 c 0
EndSplineSet
EndChar

StartChar: uni2A01.disp
Encoding: 45 -1 45
Width: 1678
Flags: HW
HStem: -449 75<676.93 802 876 1001.07> 263 74<165 802 876 1513> 974 75<676.93 802 876 1001.07>
VStem: 90 75<137.93 263 337 462.07> 802 74<-374 263 337 974> 1513 75<137.93 263 337 462.07>
CounterMasks: 1 fc
LayerCount: 2
Fore
SplineSet
876 337 m 1
 1513 337 l 1
 1494 680 1219 955 876 974 c 1
 876 337 l 1
802 337 m 1
 802 974 l 1
 459 955 184 680 165 337 c 1
 802 337 l 1
876 263 m 1
 876 -374 l 1
 1219 -355 1494 -80 1513 263 c 1
 876 263 l 1
802 263 m 1
 165 263 l 1
 184 -80 459 -355 802 -374 c 1
 802 263 l 1
839 1049 m 0
 1253 1049 1588 714 1588 300 c 0
 1588 -114 1253 -449 839 -449 c 0
 425 -449 90 -114 90 300 c 0
 90 714 425 1049 839 1049 c 0
EndSplineSet
EndChar

StartChar: uni2A02
Encoding: 46 10754 46
Width: 1250
Flags: HW
HStem: -235 74<490.398 759.602> 761 74<490.398 759.602>
VStem: 90 74<165.398 434.602> 1086 74<165.398 434.602>
LayerCount: 2
Fore
SplineSet
625 352 m 1
 924 651 l 1
 841 721 735 761 625 761 c 0
 515 761 409 721 326 651 c 1
 625 352 l 1
573 300 m 1
 274 599 l 1
 204 516 164 410 164 300 c 0
 164 190 204 84 274 1 c 1
 573 300 l 1
677 300 m 1
 976 1 l 1
 1046 84 1086 190 1086 300 c 0
 1086 410 1046 516 976 599 c 1
 677 300 l 1
625 248 m 1
 326 -51 l 1
 409 -121 515 -161 625 -161 c 0
 735 -161 841 -121 924 -51 c 1
 625 248 l 1
625 835 m 0
 920 835 1160 595 1160 300 c 0
 1160 5 920 -235 625 -235 c 0
 330 -235 90 5 90 300 c 0
 90 595 330 835 625 835 c 0
EndSplineSet
EndChar

StartChar: uni2A02.disp
Encoding: 47 -1 47
Width: 1678
Flags: HW
HStem: -449 74<670.334 1007.67> 975 74<670.334 1007.67>
VStem: 90 74<131.334 468.666> 1514 74<131.334 468.666>
LayerCount: 2
Fore
SplineSet
839 353 m 1
 1289 803 l 1
 1166 914 1005 975 839 975 c 0
 673 975 512 914 389 803 c 1
 839 353 l 1
786 300 m 1
 336 750 l 1
 225 627 164 466 164 300 c 0
 164 134 225 -27 336 -150 c 1
 786 300 l 1
892 300 m 1
 1342 -150 l 1
 1453 -27 1514 134 1514 300 c 0
 1514 466 1453 627 1342 750 c 1
 892 300 l 1
839 247 m 1
 389 -203 l 1
 512 -314 673 -375 839 -375 c 0
 1005 -375 1166 -314 1289 -203 c 1
 839 247 l 1
839 1049 m 0
 1253 1049 1588 714 1588 300 c 0
 1588 -114 1253 -449 839 -449 c 0
 425 -449 90 -114 90 300 c 0
 90 714 425 1049 839 1049 c 0
EndSplineSet
EndChar

StartChar: uni2A00
Encoding: 48 10752 48
Width: 1250
Flags: HW
HStem: -235 74<489.795 760.205> 216 168<587.513 662.487> 761 74<489.795 760.205>
VStem: 90 74<164.795 435.205> 541 168<262.513 337.487> 1086 74<164.795 435.205>
CounterMasks: 1 fc
LayerCount: 2
Fore
SplineSet
625 835 m 0
 920 835 1160 595 1160 300 c 0
 1160 5 920 -235 625 -235 c 0
 330 -235 90 5 90 300 c 0
 90 595 330 835 625 835 c 0
625 -161 m 0
 879 -161 1086 46 1086 300 c 0
 1086 554 879 761 625 761 c 0
 371 761 164 554 164 300 c 0
 164 46 371 -161 625 -161 c 0
709 300 m 0
 709 283 690 265 675 250 c 0
 660 235 642 216 625 216 c 0
 608 216 590 235 575 250 c 0
 560 265 541 283 541 300 c 0
 541 317 560 335 575 350 c 0
 590 365 608 384 625 384 c 0
 642 384 660 365 675 350 c 0
 690 335 709 317 709 300 c 0
EndSplineSet
EndChar

StartChar: uni2A00.disp
Encoding: 49 -1 49
Width: 1678
Flags: HW
HStem: -449 74<670.157 1007.84> 216 168<801.513 876.487> 975 74<670.157 1007.84>
VStem: 90 74<131.157 468.843> 755 168<262.513 337.487> 1514 74<131.157 468.843>
CounterMasks: 1 fc
LayerCount: 2
Fore
SplineSet
839 1049 m 0
 1253 1049 1588 714 1588 300 c 0
 1588 -114 1253 -449 839 -449 c 0
 425 -449 90 -114 90 300 c 0
 90 714 425 1049 839 1049 c 0
839 -375 m 0
 1211 -375 1514 -72 1514 300 c 0
 1514 672 1211 975 839 975 c 0
 467 975 164 672 164 300 c 0
 164 -72 467 -375 839 -375 c 0
923 300 m 0
 923 283 904 265 889 250 c 0
 874 235 856 216 839 216 c 0
 822 216 804 235 789 250 c 0
 774 265 755 283 755 300 c 0
 755 317 774 335 789 350 c 0
 804 365 822 384 839 384 c 0
 856 384 874 365 889 350 c 0
 904 335 923 317 923 300 c 0
EndSplineSet
EndChar

StartChar: sym09B
Encoding: 50 -1 50
Width: 1250
Flags: HW
HStem: -235 77<481.852 577 673 769.821> 758 77<480.179 577 673 768.148>
VStem: 90 74<163.424 436.576> 577 96<-158 146.111 453.889 758> 586 78<-71.1111 233 367 671.111> 1086 74<163.424 436.576>
LayerCount: 2
Fore
SplineSet
664 367 m 1xec
 998 571 l 1
 961 622 857 739 673 758 c 1xf4
 664 367 l 1xec
586 367 m 1xec
 577 758 l 1xf4
 514 751 360 720 252 571 c 1
 586 367 l 1xec
548 300 m 1
 204 487 l 1
 178 429 164 365 164 300 c 0
 164 235 178 171 204 113 c 1
 548 300 l 1
586 233 m 1xec
 252 29 l 1
 289 -22 393 -139 577 -158 c 1xf4
 586 233 l 1xec
664 233 m 1xec
 673 -158 l 1xf4
 736 -151 890 -120 998 29 c 1
 664 233 l 1xec
703 300 m 1
 1046 113 l 1
 1072 171 1086 235 1086 300 c 0
 1086 365 1072 429 1046 487 c 1
 703 300 l 1
625 835 m 0
 920 835 1160 595 1160 300 c 0
 1160 5 920 -235 625 -235 c 0
 330 -235 90 5 90 300 c 0
 90 595 330 835 625 835 c 0
EndSplineSet
EndChar

StartChar: sym09B.disp
Encoding: 51 -1 51
Width: 1678
Flags: HW
HStem: -449 76<669.742 791 887 1008.26> 973 76<669.742 791 887 1008.26>
VStem: 90 74<132.716 467.284> 791 96<-373 51.9 548.1 973> 801 76<-190.9 234 366 790.9> 1514 74<132.716 467.284>
LayerCount: 2
Fore
SplineSet
877 366 m 1xec
 1398 679 l 1
 1346 755 1184 952 887 973 c 1xf4
 877 366 l 1xec
801 366 m 1xec
 791 973 l 1xf4
 699 966 448 926 280 679 c 1
 801 366 l 1xec
762 300 m 1
 232 594 l 1
 188 503 164 403 164 300 c 0
 164 197 188 97 232 6 c 1
 762 300 l 1
801 234 m 1xec
 280 -79 l 1
 332 -155 494 -352 791 -373 c 1xf4
 801 234 l 1xec
877 234 m 1xec
 887 -373 l 1xf4
 979 -366 1230 -326 1398 -79 c 1
 877 234 l 1xec
915 300 m 1
 1446 6 l 1
 1490 97 1514 197 1514 300 c 0
 1514 403 1490 503 1446 594 c 1
 915 300 l 1
839 1049 m 0
 1253 1049 1588 714 1588 300 c 0
 1588 -114 1253 -449 839 -449 c 0
 425 -449 90 -114 90 300 c 0
 90 714 425 1049 839 1049 c 0
EndSplineSet
EndChar

StartChar: product
Encoding: 52 8719 52
Width: 1080
Flags: HW
HStem: -235 46<98 159.875 333.625 395 685 746.375 920.125 982> 761 74<298 782> 789 46<92 160.875 919.125 988>
VStem: 196 102<-160.592 760.592> 782 102<-160.592 760.592>
LayerCount: 2
Fore
SplineSet
98 -235 m 1xd8
 90 -189 l 1
 135 -177 196 -161 196 -136 c 2
 196 736 l 2
 196 761 137 777 92 789 c 1
 90 835 l 1
 990 835 l 1
 988 789 l 1xb8
 943 777 884 761 884 736 c 2
 884 -136 l 2
 884 -161 945 -177 990 -189 c 1
 982 -235 l 1
 685 -235 l 1
 677 -189 l 1
 722 -177 782 -161 782 -136 c 2
 782 761 l 1
 298 761 l 1
 298 -136 l 2
 298 -161 358 -177 403 -189 c 1
 395 -235 l 1
 98 -235 l 1xd8
EndSplineSet
EndChar

StartChar: product.disp
Encoding: 53 -1 53
Width: 1440
Flags: HW
HStem: -449 50<99 161.564 359.436 422 1018 1080.56 1278.44 1341> 969 80<316 1124> 999 50<93 162.807 1277.19 1347>
VStem: 205 111<-367.25 967.25> 1124 111<-367.25 967.25>
LayerCount: 2
Fore
SplineSet
99 -449 m 1xd8
 90 -399 l 1
 139 -386 205 -369 205 -341 c 2
 205 941 l 2
 205 969 141 986 93 999 c 1
 90 1049 l 1
 1350 1049 l 1
 1347 999 l 1xb8
 1299 986 1235 969 1235 941 c 2
 1235 -341 l 2
 1235 -369 1301 -386 1350 -399 c 1
 1341 -449 l 1
 1018 -449 l 1
 1009 -399 l 1
 1058 -386 1124 -369 1124 -341 c 2
 1124 969 l 1
 316 969 l 1
 316 -341 l 2
 316 -369 382 -386 431 -399 c 1
 422 -449 l 1
 99 -449 l 1xd8
EndSplineSet
EndChar

StartChar: product.sf
Encoding: 54 -1 54
Width: 1080
Flags: HW
HStem: 736 99<90 195 294 786 885 990>
VStem: 195 99<-235 736> 786 99<-235 736>
LayerCount: 2
Fore
SplineSet
195 -235 m 1
 195 736 l 1
 90 736 l 1
 90 835 l 1
 990 835 l 1
 990 736 l 1
 885 736 l 1
 885 -235 l 1
 786 -235 l 1
 786 736 l 1
 294 736 l 1
 294 -235 l 1
 195 -235 l 1
EndSplineSet
EndChar

StartChar: product.sf.disp
Encoding: 55 -1 55
Width: 1440
Flags: HW
HStem: 942 107<90 204 312 1128 1236 1350>
VStem: 204 108<-449 942> 1128 108<-449 942>
LayerCount: 2
Fore
SplineSet
204 -449 m 1
 204 942 l 1
 90 942 l 1
 90 1049 l 1
 1350 1049 l 1
 1350 942 l 1
 1236 942 l 1
 1236 -449 l 1
 1128 -449 l 1
 1128 942 l 1
 312 942 l 1
 312 -449 l 1
 204 -449 l 1
EndSplineSet
EndChar

StartChar: uni2210
Encoding: 56 8720 56
Width: 1080
Flags: HW
HStem: -235 74<298 782> -235 46<92 160.875 919.125 988> 789 46<98 159.875 333.625 395 685 746.375 920.125 982>
VStem: 196 102<-160.592 760.592> 782 102<-160.592 760.592>
LayerCount: 2
Fore
SplineSet
98 835 m 1x78
 395 835 l 1
 403 789 l 1
 358 777 298 761 298 736 c 2
 298 -161 l 1
 782 -161 l 1xb8
 782 736 l 2
 782 761 722 777 677 789 c 1
 685 835 l 1
 982 835 l 1
 990 789 l 1
 945 777 884 761 884 736 c 2
 884 -136 l 2
 884 -161 943 -177 988 -189 c 1
 990 -235 l 1
 90 -235 l 1
 92 -189 l 1
 137 -177 196 -161 196 -136 c 2
 196 736 l 2
 196 761 135 777 90 789 c 1
 98 835 l 1x78
EndSplineSet
EndChar

StartChar: uni2210.disp
Encoding: 57 -1 57
Width: 1440
Flags: HW
HStem: -449 80<316 1124> -449 50<93 162.807 1277.19 1347> 999 50<99 161.564 359.436 422 1018 1080.56 1278.44 1341>
VStem: 205 111<-367.25 967.25> 1124 111<-367.25 967.25>
LayerCount: 2
Fore
SplineSet
99 1049 m 1x78
 422 1049 l 1
 431 999 l 1
 382 986 316 969 316 941 c 2
 316 -369 l 1
 1124 -369 l 1xb8
 1124 941 l 2
 1124 969 1058 986 1009 999 c 1
 1018 1049 l 1
 1341 1049 l 1
 1350 999 l 1
 1301 986 1235 969 1235 941 c 2
 1235 -341 l 2
 1235 -369 1299 -386 1347 -399 c 1
 1350 -449 l 1
 90 -449 l 1
 93 -399 l 1
 141 -386 205 -369 205 -341 c 2
 205 941 l 2
 205 969 139 986 90 999 c 1
 99 1049 l 1x78
EndSplineSet
EndChar

StartChar: uni2210.sf
Encoding: 58 -1 58
Width: 1080
Flags: HW
HStem: -235 99<90 195 294 786 885 990>
VStem: 195 99<-136 835> 786 99<-136 835>
LayerCount: 2
Fore
SplineSet
195 835 m 1
 294 835 l 1
 294 -136 l 1
 786 -136 l 1
 786 835 l 1
 885 835 l 1
 885 -136 l 1
 990 -136 l 1
 990 -235 l 1
 90 -235 l 1
 90 -136 l 1
 195 -136 l 1
 195 835 l 1
EndSplineSet
EndChar

StartChar: uni2210.sf.disp
Encoding: 59 -1 59
Width: 1440
Flags: HW
HStem: -449 107<90 204 312 1128 1236 1350>
VStem: 204 108<-342 1049> 1128 108<-342 1049>
LayerCount: 2
Fore
SplineSet
204 1049 m 1
 312 1049 l 1
 312 -342 l 1
 1128 -342 l 1
 1128 1049 l 1
 1236 1049 l 1
 1236 -342 l 1
 1350 -342 l 1
 1350 -449 l 1
 90 -449 l 1
 90 -342 l 1
 204 -342 l 1
 204 1049 l 1
EndSplineSet
EndChar

StartChar: summation
Encoding: 60 8721 60
Width: 900
Flags: HW
HStem: 767 68<220 710.564>
VStem: 773 37<682 711.951>
LayerCount: 2
Fore
SplineSet
107 -235 m 1
 90 -161 l 1
 388 289 l 1
 90 752 l 1
 109 835 l 1
 810 835 l 1
 810 682 l 1
 773 682 l 1
 750 737 690 763 630 763 c 2
 220 767 l 1
 512 311 l 1
 200 -161 l 1
 612 -140 l 2
 687 -136 780 -132 792 -78 c 1
 828 -87 l 1
 787 -235 l 1
 107 -235 l 1
EndSplineSet
EndChar

StartChar: summation.disp
Encoding: 61 -1 61
Width: 1188
Flags: HW
HStem: -449 103<630.364 1019.76> -449 81<209 405.636> 975 74<230 979.341>
VStem: 1058 40<883 914.136>
LayerCount: 2
Fore
SplineSet
109 -449 m 1x70
 90 -368 l 1
 527 288 l 1
 90 959 l 1
 111 1049 l 1
 1098 1049 l 1
 1098 883 l 1
 1058 883 l 1
 1026 959 932 971 846 971 c 2
 230 975 l 1
 661 312 l 1
 209 -368 l 1x70
 827 -346 l 2xb0
 929 -342 1065 -337 1078 -278 c 1
 1118 -288 l 1
 1072 -449 l 1
 109 -449 l 1x70
EndSplineSet
EndChar

StartChar: summation.sf
Encoding: 62 -1 62
Width: 900
Flags: HW
HStem: -235 102<217 810> 733 102<217 810>
LayerCount: 2
Fore
SplineSet
90 -235 m 1
 90 -133 l 1
 387 300 l 1
 90 733 l 1
 90 835 l 1
 810 835 l 1
 810 733 l 1
 217 733 l 1
 513 300 l 1
 217 -133 l 1
 810 -133 l 1
 810 -235 l 1
 90 -235 l 1
EndSplineSet
EndChar

StartChar: summation.sf.disp
Encoding: 63 -1 63
Width: 1188
Flags: HW
HStem: -449 111<227 1098> 938 111<227 1098>
LayerCount: 2
Fore
SplineSet
90 -449 m 1
 90 -338 l 1
 526 300 l 1
 90 938 l 1
 90 1049 l 1
 1098 1049 l 1
 1098 938 l 1
 227 938 l 1
 662 300 l 1
 227 -338 l 1
 1098 -338 l 1
 1098 -449 l 1
 90 -449 l 1
EndSplineSet
EndChar

StartChar: uni2A0A
Encoding: 64 10762 64
Width: 900
Flags: HW
HStem: 83 74<413.523 524.217> 443 74<429.382 524.217> 767 68<220 710.564>
VStem: 233 74<224.763 375.583> 593 74<225.783 374.217> 773 37<682 711.951>
LayerCount: 2
Fore
SplineSet
330 378 m 1
 315 355 307 328 307 300 c 0
 307 268 317 237 337 212 c 1
 388 289 l 1
 330 378 l 1
450 517 m 0
 569 517 667 419 667 300 c 0
 667 181 569 83 450 83 c 0
 423 83 396 88 371 98 c 1
 200 -161 l 1
 612 -140 l 2
 687 -136 780 -132 792 -78 c 1
 828 -87 l 1
 787 -235 l 1
 107 -235 l 1
 90 -161 l 1
 295 149 l 1
 255 189 233 243 233 300 c 0
 233 354 252 405 288 444 c 1
 90 752 l 1
 109 835 l 1
 810 835 l 1
 810 682 l 1
 773 682 l 1
 750 737 690 763 630 763 c 2
 220 767 l 1
 386 507 l 1
 406 513 428 517 450 517 c 0
450 157 m 0
 529 157 593 221 593 300 c 0
 593 379 529 443 450 443 c 0
 443 443 436 442 429 441 c 1
 512 311 l 1
 413 162 l 1
 425 159 437 157 450 157 c 0
EndSplineSet
EndChar

StartChar: uni2A0A.disp
Encoding: 65 -1 65
Width: 1188
Flags: HW
HStem: -449 103<630.364 1019.76> -449 81<209 405.636> -38 80<495.861 694.426> 558 80<511.398 694.426> 975 74<230 979.341>
VStem: 256 80<198.668 403.162> 852 80<199.574 400.426> 1058 40<883 914.136>
LayerCount: 2
Fore
SplineSet
405 475 m 1x3f
 360 428 336 365 336 300 c 0
 336 244 353 178 413 117 c 1
 527 288 l 1
 405 475 l 1x3f
594 638 m 0
 781 638 932 487 932 300 c 0
 932 113 781 -38 594 -38 c 0
 543 -38 495 -27 450 -6 c 1
 209 -368 l 1x7f
 827 -346 l 2xbf
 929 -342 1065 -337 1078 -278 c 1
 1118 -288 l 1
 1072 -449 l 1
 109 -449 l 1
 90 -368 l 1x7f
 368 49 l 1
 322 91 256 173 256 300 c 0
 256 366 274 461 360 544 c 1
 90 959 l 1
 111 1049 l 1
 1098 1049 l 1
 1098 883 l 1
 1058 883 l 1
 1026 959 932 971 846 971 c 2
 230 975 l 1
 465 613 l 1
 505 629 549 638 594 638 c 0
594 42 m 0
 736 42 852 158 852 300 c 0
 852 442 736 558 594 558 c 0
 565 558 537 553 510 544 c 1
 661 312 l 1
 495 62 l 1
 526 49 560 42 594 42 c 0
EndSplineSet
EndChar

StartChar: uni2A0A.sf
Encoding: 66 -1 66
Width: 900
Flags: HW
HStem: -235 102<217 810> 83 74<418.458 524.217> 443 74<418.458 524.217> 733 102<217 810>
VStem: 233 74<226.323 373.677> 593 74<225.783 374.217>
LayerCount: 2
Fore
SplineSet
332 380 m 1
 316 356 307 329 307 300 c 0
 307 271 316 244 332 220 c 1
 387 300 l 1
 332 380 l 1
450 517 m 0
 569 517 667 419 667 300 c 0
 667 181 569 83 450 83 c 0
 424 83 398 88 374 97 c 1
 217 -133 l 1
 810 -133 l 1
 810 -235 l 1
 90 -235 l 1
 90 -133 l 1
 288 156 l 1
 252 195 233 246 233 300 c 0
 233 354 252 405 288 444 c 1
 90 733 l 1
 90 835 l 1
 810 835 l 1
 810 733 l 1
 217 733 l 1
 374 503 l 1
 398 512 424 517 450 517 c 0
450 157 m 0
 529 157 593 221 593 300 c 0
 593 379 529 443 450 443 c 0
 439 443 428 441 418 439 c 1
 513 300 l 1
 418 161 l 1
 428 159 439 157 450 157 c 0
EndSplineSet
EndChar

StartChar: uni2A0A.sf.disp
Encoding: 67 -1 67
Width: 1188
Flags: HW
HStem: -449 111<227 1098> -38 80<500.775 694.426> 558 80<500.775 694.426> 938 111<227 1098>
VStem: 256 80<196.756 403.447> 852 80<199.574 400.426>
LayerCount: 2
Fore
SplineSet
406 476 m 1
 361 429 336 365 336 300 c 0
 336 235 361 171 406 124 c 1
 526 300 l 1
 406 476 l 1
594 638 m 0
 781 638 932 487 932 300 c 0
 932 113 781 -38 594 -38 c 0
 545 -38 496 -27 452 -7 c 1
 227 -338 l 1
 1098 -338 l 1
 1098 -449 l 1
 90 -449 l 1
 90 -338 l 1
 360 56 l 1
 312 103 256 183 256 300 c 0
 256 366 275 461 360 544 c 1
 90 938 l 1
 90 1049 l 1
 1098 1049 l 1
 1098 938 l 1
 227 938 l 1
 452 607 l 1
 496 627 545 638 594 638 c 0
594 42 m 0
 736 42 852 158 852 300 c 0
 852 442 736 558 594 558 c 0
 561 558 529 552 499 540 c 1
 662 300 l 1
 499 60 l 1
 529 48 561 42 594 42 c 0
EndSplineSet
EndChar

StartChar: integral
Encoding: 68 8747 68
Width: 476
Flags: HW
HStem: -303 82<112 202.015> 823 80<387.94 488.284>
VStem: 251 98<-165.975 772.775>
LayerCount: 2
Fore
SplineSet
509 897 m 1
 488 817 l 1
 472 821 456 823 439 823 c 0
 376 823 349 749 349 676 c 2
 349 -71 l 2
 349 -199 245 -303 117 -303 c 0
 115 -303 114 -303 112 -303 c 1
 101 -221 l 1
 150 -221 l 2
 217 -221 251 -146 251 -71 c 2
 251 676 l 2
 251 798 342 902 461 903 c 0
 477 903 493 901 509 897 c 1
EndSplineSet
EndChar

StartChar: integral.disp
Encoding: 69 -1 69
Width: 686
Flags: HW
HStem: -786 96<121 251.22> 1293 93<658.205 818.32>
VStem: 411 114<-513.355 1120.69>
LayerCount: 2
Fore
SplineSet
411 994 m 2
 411 1213 577 1386 772 1386 c 0
 795 1386 817 1384 840 1379 c 1
 815 1285 l 1
 788 1290 761 1293 733 1293 c 0
 598 1293 525 1145 525 994 c 2
 525 -388 l 2
 525 -608 345 -786 126 -786 c 0
 124 -786 123 -786 121 -786 c 1
 108 -690 l 1
 190 -690 l 2
 330 -690 411 -542 411 -388 c 2
 411 994 l 2
EndSplineSet
EndChar

StartChar: uni222C
Encoding: 70 8748 70
Width: 776
Flags: HW
HStem: -303 82<112 202.015 412 502.015> 823 80<387.94 488.284 687.94 788.284>
VStem: 251 98<-165.975 772.775> 551 98<-165.975 772.775>
LayerCount: 2
Fore
SplineSet
509 897 m 1
 488 817 l 1
 472 821 456 823 439 823 c 0
 376 823 349 749 349 676 c 2
 349 -71 l 2
 349 -199 245 -303 117 -303 c 0
 115 -303 114 -303 112 -303 c 1
 101 -221 l 1
 150 -221 l 2
 217 -221 251 -146 251 -71 c 2
 251 676 l 2
 251 798 342 902 461 903 c 0
 477 903 493 901 509 897 c 1
809 897 m 1
 788 817 l 1
 772 821 756 823 739 823 c 0
 676 823 649 749 649 676 c 2
 649 -71 l 2
 649 -199 545 -303 417 -303 c 0
 415 -303 414 -303 412 -303 c 1
 401 -221 l 1
 450 -221 l 2
 517 -221 551 -146 551 -71 c 2
 551 676 l 2
 551 798 642 902 761 903 c 0
 777 903 794 901 809 897 c 1
EndSplineSet
EndChar

StartChar: uni222C.disp
Encoding: 71 -1 71
Width: 1226
Flags: HW
HStem: -786 96<121 251.22 661 791.22> 1285 94<773.077 816.862 1313.08 1356.86> 1293 93<658.205 818.32 1198.21 1358.32>
VStem: 411 114<-513.355 1120.69> 951 114<-513.355 1120.69>
LayerCount: 2
Fore
SplineSet
411 994 m 2xb8
 411 1213 577 1386 772 1386 c 0xb8
 795 1386 817 1384 840 1379 c 1
 815 1285 l 1xd8
 788 1290 761 1293 733 1293 c 0
 598 1293 525 1145 525 994 c 2
 525 -388 l 2
 525 -608 345 -786 126 -786 c 0
 124 -786 123 -786 121 -786 c 1
 108 -690 l 1
 190 -690 l 2
 330 -690 411 -542 411 -388 c 2
 411 994 l 2xb8
951 994 m 2
 951 1213 1117 1386 1312 1386 c 0xb8
 1335 1386 1357 1384 1380 1379 c 1
 1355 1285 l 1xd8
 1328 1290 1301 1293 1273 1293 c 0
 1138 1293 1065 1145 1065 994 c 2
 1065 -388 l 2
 1065 -608 885 -786 666 -786 c 0
 664 -786 663 -786 661 -786 c 1
 648 -690 l 1
 730 -690 l 2
 870 -690 951 -542 951 -388 c 2
 951 994 l 2
EndSplineSet
EndChar

StartChar: uni222D
Encoding: 72 8749 72
Width: 1076
Flags: HW
HStem: -303 82<112 202.015 412 502.015 712 802.015> 823 80<387.94 488.284 687.94 788.284 987.94 1088.28>
VStem: 251 98<-165.975 772.775> 551 98<-165.975 772.775> 851 98<-165.975 772.775>
CounterMasks: 1 38
LayerCount: 2
Fore
SplineSet
509 897 m 1
 488 817 l 1
 472 821 456 823 439 823 c 0
 376 823 349 749 349 676 c 2
 349 -71 l 2
 349 -199 245 -303 117 -303 c 0
 115 -303 114 -303 112 -303 c 1
 101 -221 l 1
 150 -221 l 2
 217 -221 251 -146 251 -71 c 2
 251 676 l 2
 251 798 342 902 461 903 c 0
 477 903 493 901 509 897 c 1
809 897 m 1
 788 817 l 1
 772 821 756 823 739 823 c 0
 676 823 649 749 649 676 c 2
 649 -71 l 2
 649 -199 545 -303 417 -303 c 0
 415 -303 414 -303 412 -303 c 1
 401 -221 l 1
 450 -221 l 2
 517 -221 551 -146 551 -71 c 2
 551 676 l 2
 551 798 642 902 761 903 c 0
 777 903 794 901 809 897 c 1
1109 897 m 1
 1088 817 l 1
 1072 821 1056 823 1039 823 c 0
 976 823 949 749 949 676 c 2
 949 -71 l 2
 949 -199 845 -303 717 -303 c 0
 715 -303 714 -303 712 -303 c 1
 701 -221 l 1
 750 -221 l 2
 817 -221 851 -146 851 -71 c 2
 851 676 l 2
 851 798 942 902 1061 903 c 0
 1077 903 1094 901 1109 897 c 1
EndSplineSet
EndChar

StartChar: uni222D.disp
Encoding: 73 -1 73
Width: 1766
Flags: HW
HStem: -786 96<121 251.22 661 791.22 1201 1331.22> 1285 94<773.077 816.862 1313.08 1356.86 1853.08 1896.86> 1293 93<658.205 818.32 1198.21 1358.32 1738.21 1898.32>
VStem: 411 114<-513.355 1120.69> 951 114<-513.355 1120.69> 1491 114<-513.355 1120.69>
CounterMasks: 1 1c
LayerCount: 2
Fore
SplineSet
411 994 m 2xbc
 411 1213 577 1386 772 1386 c 0xbc
 795 1386 817 1384 840 1379 c 1
 815 1285 l 1xdc
 788 1290 761 1293 733 1293 c 0
 598 1293 525 1145 525 994 c 2
 525 -388 l 2
 525 -608 345 -786 126 -786 c 0
 124 -786 123 -786 121 -786 c 1
 108 -690 l 1
 190 -690 l 2
 330 -690 411 -542 411 -388 c 2
 411 994 l 2xbc
951 994 m 2
 951 1213 1117 1386 1312 1386 c 0xbc
 1335 1386 1357 1384 1380 1379 c 1
 1355 1285 l 1xdc
 1328 1290 1301 1293 1273 1293 c 0
 1138 1293 1065 1145 1065 994 c 2
 1065 -388 l 2
 1065 -608 885 -786 666 -786 c 0
 664 -786 663 -786 661 -786 c 1
 648 -690 l 1
 730 -690 l 2
 870 -690 951 -542 951 -388 c 2
 951 994 l 2
1491 994 m 2
 1491 1213 1657 1386 1852 1386 c 0xbc
 1875 1386 1897 1384 1920 1379 c 1
 1895 1285 l 1xdc
 1868 1290 1841 1293 1813 1293 c 0
 1678 1293 1605 1145 1605 994 c 2
 1605 -388 l 2
 1605 -608 1425 -786 1206 -786 c 0
 1204 -786 1203 -786 1201 -786 c 1
 1188 -690 l 1
 1270 -690 l 2
 1410 -690 1491 -542 1491 -388 c 2
 1491 994 l 2
EndSplineSet
EndChar

StartChar: uni2A0C
Encoding: 74 10764 74
Width: 1376
Flags: HW
HStem: -303 82<112 202.015 412 502.015 712 802.015 1012 1102.01> 823 80<387.94 488.284 687.94 788.284 987.94 1088.28 1287.94 1388.28>
VStem: 251 98<-165.975 772.775> 551 98<-165.975 772.775> 851 98<-165.975 772.775> 1151 98<-165.975 772.775>
LayerCount: 2
Fore
SplineSet
509 897 m 1
 488 817 l 1
 472 821 456 823 439 823 c 0
 376 823 349 749 349 676 c 2
 349 -71 l 2
 349 -199 245 -303 117 -303 c 0
 115 -303 114 -303 112 -303 c 1
 101 -221 l 1
 150 -221 l 2
 217 -221 251 -146 251 -71 c 2
 251 676 l 2
 251 798 342 902 461 903 c 0
 477 903 493 901 509 897 c 1
809 897 m 1
 788 817 l 1
 772 821 756 823 739 823 c 0
 676 823 649 749 649 676 c 2
 649 -71 l 2
 649 -199 545 -303 417 -303 c 0
 415 -303 414 -303 412 -303 c 1
 401 -221 l 1
 450 -221 l 2
 517 -221 551 -146 551 -71 c 2
 551 676 l 2
 551 798 642 902 761 903 c 0
 777 903 794 901 809 897 c 1
1109 897 m 1
 1088 817 l 1
 1072 821 1056 823 1039 823 c 0
 976 823 949 749 949 676 c 2
 949 -71 l 2
 949 -199 845 -303 717 -303 c 0
 715 -303 714 -303 712 -303 c 1
 701 -221 l 1
 750 -221 l 2
 817 -221 851 -146 851 -71 c 2
 851 676 l 2
 851 798 942 902 1061 903 c 0
 1077 903 1094 901 1109 897 c 1
1409 897 m 1
 1388 817 l 1
 1372 821 1356 823 1339 823 c 0
 1276 823 1249 749 1249 676 c 2
 1249 -71 l 2
 1249 -199 1145 -303 1017 -303 c 0
 1015 -303 1014 -303 1012 -303 c 1
 1001 -221 l 1
 1050 -221 l 2
 1117 -221 1151 -146 1151 -71 c 2
 1151 676 l 2
 1151 798 1242 902 1361 903 c 0
 1377 903 1394 901 1409 897 c 1
EndSplineSet
EndChar

StartChar: uni2A0C.disp
Encoding: 75 -1 75
Width: 2306
Flags: HW
HStem: -786 96<121 251.22 661 791.22 1201 1331.22 1741 1871.22> 1285 94<773.077 816.862 1313.08 1356.86 1853.08 1896.86 2393.08 2436.86> 1293 93<658.205 818.32 1198.21 1358.32 1738.21 1898.32 2278.21 2438.32>
VStem: 411 114<-513.355 1120.69> 951 114<-513.355 1120.69> 1491 114<-513.355 1120.69> 2031 114<-513.355 1120.69>
LayerCount: 2
Fore
SplineSet
411 994 m 2xbe
 411 1213 577 1386 772 1386 c 0xbe
 795 1386 817 1384 840 1379 c 1
 815 1285 l 1xde
 788 1290 761 1293 733 1293 c 0
 598 1293 525 1145 525 994 c 2
 525 -388 l 2
 525 -608 345 -786 126 -786 c 0
 124 -786 123 -786 121 -786 c 1
 108 -690 l 1
 190 -690 l 2
 330 -690 411 -542 411 -388 c 2
 411 994 l 2xbe
951 994 m 2
 951 1213 1117 1386 1312 1386 c 0xbe
 1335 1386 1357 1384 1380 1379 c 1
 1355 1285 l 1xde
 1328 1290 1301 1293 1273 1293 c 0
 1138 1293 1065 1145 1065 994 c 2
 1065 -388 l 2
 1065 -608 885 -786 666 -786 c 0
 664 -786 663 -786 661 -786 c 1
 648 -690 l 1
 730 -690 l 2
 870 -690 951 -542 951 -388 c 2
 951 994 l 2
1491 994 m 2
 1491 1213 1657 1386 1852 1386 c 0xbe
 1875 1386 1897 1384 1920 1379 c 1
 1895 1285 l 1xde
 1868 1290 1841 1293 1813 1293 c 0
 1678 1293 1605 1145 1605 994 c 2
 1605 -388 l 2
 1605 -608 1425 -786 1206 -786 c 0
 1204 -786 1203 -786 1201 -786 c 1
 1188 -690 l 1
 1270 -690 l 2
 1410 -690 1491 -542 1491 -388 c 2
 1491 994 l 2
2031 994 m 2
 2031 1213 2197 1386 2392 1386 c 0xbe
 2415 1386 2437 1384 2460 1379 c 1
 2435 1285 l 1xde
 2408 1290 2381 1293 2353 1293 c 0
 2218 1293 2145 1145 2145 994 c 2
 2145 -388 l 2
 2145 -608 1965 -786 1746 -786 c 0
 1744 -786 1743 -786 1741 -786 c 1
 1728 -690 l 1
 1810 -690 l 2
 1950 -690 2031 -542 2031 -388 c 2
 2031 994 l 2
EndSplineSet
EndChar

StartChar: uni222B22EF222B
Encoding: 76 -1 76
Width: 1872
Flags: HW
HStem: -303 82<112 202.015 1358 1448.01> 219 168<574.436 649.331 885.513 960.487 1197.44 1272.33> 823 80<387.94 488.284 1633.94 1734.28>
VStem: 251 98<-165.975 772.775> 528 168<265.436 340.331> 839 168<264.687 340.331> 1151 168<265.436 340.331> 1497 98<-165.975 772.775>
LayerCount: 2
Fore
SplineSet
509 897 m 1
 488 817 l 1
 472 821 456 823 439 823 c 0
 376 823 349 749 349 676 c 2
 349 -71 l 2
 349 -199 245 -303 117 -303 c 0
 115 -303 114 -303 112 -303 c 1
 101 -221 l 1
 150 -221 l 2
 217 -221 251 -146 251 -71 c 2
 251 676 l 2
 251 798 342 902 461 903 c 0
 477 903 493 901 509 897 c 1
1755 897 m 1
 1734 817 l 1
 1718 821 1702 823 1685 823 c 0
 1622 823 1595 749 1595 676 c 2
 1595 -71 l 2
 1595 -199 1491 -303 1363 -303 c 0
 1361 -303 1360 -303 1358 -303 c 1
 1347 -221 l 1
 1396 -221 l 2
 1463 -221 1497 -146 1497 -71 c 2
 1497 676 l 2
 1497 798 1588 902 1707 903 c 0
 1723 903 1739 901 1755 897 c 1
612 219 m 0
 587 219 528 278 528 303 c 0
 528 319 546 338 561 353 c 0
 576 368 595 387 612 387 c 0
 628 387 647 368 662 353 c 0
 677 338 696 319 696 303 c 0
 696 286 677 267 662 252 c 0
 647 237 628 219 612 219 c 0
1007 303 m 0
 1007 286 988 267 973 252 c 0
 958 237 940 219 923 219 c 0
 906 219 888 237 873 252 c 0
 858 267 839 286 839 303 c 0
 839 319 858 338 873 353 c 0
 888 368 906 387 923 387 c 0
 940 387 958 368 973 353 c 0
 988 338 1007 319 1007 303 c 0
1235 219 m 0
 1210 219 1151 278 1151 303 c 0
 1151 319 1169 338 1184 353 c 0
 1199 368 1218 387 1235 387 c 0
 1251 387 1270 368 1285 353 c 0
 1300 338 1319 319 1319 303 c 0
 1319 286 1300 267 1285 252 c 0
 1270 237 1251 219 1235 219 c 0
EndSplineSet
EndChar

StartChar: uni222B22EF222B.disp
Encoding: 77 -1 77
Width: 2322
Flags: HW
HStem: -786 96<121 251.22 1487 1617.22> 219 168<771.687 847.331 1113.51 1188.49 1454.69 1530.33> 1285 94<773.077 816.862 2139.08 2182.86> 1293 93<658.205 818.32 2024.21 2184.32>
VStem: 411 114<-513.355 1120.69> 726 168<265.513 340.487> 1067 168<265.513 340.487> 1409 168<265.513 340.487> 1777 114<-513.355 1120.69>
LayerCount: 2
Fore
SplineSet
411 994 m 2xdf80
 411 1213 577 1386 772 1386 c 0xdf80
 795 1386 817 1384 840 1379 c 1
 815 1285 l 1xef80
 788 1290 761 1293 733 1293 c 0
 598 1293 525 1145 525 994 c 2
 525 -388 l 2
 525 -608 345 -786 126 -786 c 0
 124 -786 123 -786 121 -786 c 1
 108 -690 l 1
 190 -690 l 2
 330 -690 411 -542 411 -388 c 2
 411 994 l 2xdf80
1777 994 m 2
 1777 1213 1943 1386 2138 1386 c 0xdf80
 2161 1386 2183 1384 2206 1379 c 1
 2181 1285 l 1xef80
 2154 1290 2127 1293 2099 1293 c 0
 1964 1293 1891 1145 1891 994 c 2
 1891 -388 l 2
 1891 -608 1711 -786 1492 -786 c 0
 1490 -786 1489 -786 1487 -786 c 1
 1474 -690 l 1
 1556 -690 l 2
 1696 -690 1777 -542 1777 -388 c 2
 1777 994 l 2
894 303 m 0
 894 286 875 268 860 253 c 0
 845 238 826 219 810 219 c 0
 793 219 774 238 759 253 c 0
 744 268 726 286 726 303 c 0
 726 320 744 338 759 353 c 0
 774 368 793 387 810 387 c 0
 826 387 845 368 860 353 c 0
 875 338 894 320 894 303 c 0
1235 303 m 0
 1235 286 1216 268 1201 253 c 0
 1186 238 1168 219 1151 219 c 0
 1134 219 1116 238 1101 253 c 0
 1086 268 1067 286 1067 303 c 0
 1067 320 1086 338 1101 353 c 0
 1116 368 1134 387 1151 387 c 0
 1168 387 1186 368 1201 353 c 0
 1216 338 1235 320 1235 303 c 0
1577 303 m 0
 1577 286 1558 268 1543 253 c 0
 1528 238 1509 219 1493 219 c 0
 1476 219 1457 238 1442 253 c 0
 1427 268 1409 286 1409 303 c 0
 1409 320 1427 338 1442 353 c 0
 1457 368 1476 387 1493 387 c 0
 1509 387 1528 368 1543 353 c 0
 1558 338 1577 320 1577 303 c 0
EndSplineSet
EndChar

StartChar: uni2231
Encoding: 78 8753 78
Width: 720
Flags: HW
HStem: -303 82<172 262.015> 199 62<459.435 516> 320 76<254.314 311> 823 80<447.94 548.284>
VStem: 311 98<-165.975 320 391.838 772.775> 557 61<325 383.574>
LayerCount: 2
Fore
SplineSet
633 215 m 1
 460 199 l 1
 455 261 l 1
 516 266 l 1
 483 291 448 311 409 320 c 1
 409 -71 l 2
 409 -199 305 -303 177 -303 c 0
 175 -303 174 -303 172 -303 c 1
 161 -221 l 1
 210 -221 l 2
 277 -221 311 -146 311 -71 c 2
 311 320 l 1
 248 305 193 263 146 216 c 1
 94 269 l 1
 155 330 228 381 311 396 c 1
 311 676 l 2
 311 798 402 902 521 903 c 0
 537 903 554 901 569 897 c 1
 548 817 l 1
 532 821 516 823 499 823 c 0
 436 823 409 749 409 676 c 2
 409 396 l 1
 465 386 516 360 562 325 c 1
 557 383 l 1
 618 388 l 1
 633 215 l 1
EndSplineSet
EndChar

StartChar: uni2231.disp
Encoding: 79 -1 79
Width: 902
Flags: HW
HStem: -786 96<229 359.22> 364 87<434.703 519 633 717.342> 1293 93<766.205 926.32>
VStem: 519 114<-513.355 364 448.59 1120.69>
LayerCount: 2
Fore
SplineSet
519 994 m 2
 519 1213 685 1386 880 1386 c 0
 903 1386 925 1384 948 1379 c 1
 923 1285 l 1
 896 1290 869 1293 841 1293 c 0
 706 1293 633 1145 633 994 c 2
 633 451 l 1
 756 436 866 375 963 294 c 1
 950 449 l 1
 1021 455 l 1
 1047 163 l 1
 754 137 l 1
 748 208 l 1
 916 222 l 1
 833 293 738 349 633 364 c 1
 633 -388 l 2
 633 -608 453 -786 234 -786 c 0
 232 -786 231 -786 229 -786 c 1
 216 -690 l 1
 298 -690 l 2
 438 -690 519 -542 519 -388 c 2
 519 364 l 1
 387 345 271 261 174 165 c 1
 114 225 l 1
 226 338 364 432 519 451 c 1
 519 994 l 2
EndSplineSet
EndChar

StartChar: uni2A11
Encoding: 80 10769 80
Width: 720
Flags: HW
HStem: -303 82<172 262.015> 210 76<254.314 311> 223 168<557 618.625> 344 62<459.435 517> 823 80<447.94 548.284>
VStem: 311 98<-165.975 214.162 286 772.775> 557 61<222.311 281>
LayerCount: 2
Fore
SplineSet
633 391 m 1xae
 618 217 l 1
 557 223 l 1xae
 562 281 l 1
 516 247 465 220 409 210 c 1
 409 -71 l 2
 409 -199 305 -303 177 -303 c 0
 175 -303 174 -303 172 -303 c 1
 161 -221 l 1
 210 -221 l 2
 277 -221 311 -146 311 -71 c 2
 311 210 l 1
 228 225 155 276 94 336 c 1
 146 389 l 1
 193 342 248 301 311 286 c 1
 311 676 l 2
 311 798 402 902 521 903 c 0
 537 903 554 901 569 897 c 1
 548 817 l 1
 532 821 516 823 499 823 c 0
 436 823 409 749 409 676 c 2
 409 286 l 1
 448 295 484 314 517 339 c 1
 455 344 l 1
 460 406 l 1xde
 633 391 l 1xae
EndSplineSet
EndChar

StartChar: uni2A11.disp
Encoding: 81 -1 81
Width: 902
Flags: HW
HStem: -786 96<229 359.22> 155 87<434.703 519 633 717.342> 1293 93<766.205 926.32>
VStem: 519 114<-513.355 157.41 242 1120.69>
LayerCount: 2
Fore
SplineSet
519 994 m 2
 519 1213 685 1386 880 1386 c 0
 903 1386 925 1384 948 1379 c 1
 923 1285 l 1
 896 1290 869 1293 841 1293 c 0
 706 1293 633 1145 633 994 c 2
 633 242 l 1
 738 257 833 313 916 384 c 1
 748 398 l 1
 754 469 l 1
 1047 443 l 1
 1021 151 l 1
 950 157 l 1
 963 312 l 1
 866 231 756 170 633 155 c 1
 633 -388 l 2
 633 -608 453 -786 234 -786 c 0
 232 -786 231 -786 229 -786 c 1
 216 -690 l 1
 298 -690 l 2
 438 -690 519 -542 519 -388 c 2
 519 155 l 1
 364 174 226 268 114 381 c 1
 174 441 l 1
 271 345 387 261 519 242 c 1
 519 994 l 2
EndSplineSet
EndChar

StartChar: uni2A0D
Encoding: 82 10765 82
Width: 600
Flags: HW
HStem: -303 82<112 202.015> 266 74<113 251 349 487> 823 80<387.94 488.284>
VStem: 251 98<-165.975 266 340 772.775>
LayerCount: 2
Fore
SplineSet
113 266 m 1
 113 340 l 1
 251 340 l 1
 251 676 l 2
 251 798 342 902 461 903 c 0
 477 903 493 901 509 897 c 1
 488 817 l 1
 472 821 456 823 439 823 c 0
 376 823 349 749 349 676 c 2
 349 340 l 1
 487 340 l 1
 487 266 l 1
 349 266 l 1
 349 -71 l 2
 349 -199 245 -303 117 -303 c 0
 115 -303 114 -303 112 -303 c 1
 101 -221 l 1
 150 -221 l 2
 217 -221 251 -146 251 -71 c 2
 251 266 l 1
 113 266 l 1
EndSplineSet
EndChar

StartChar: uni2A0D.disp
Encoding: 83 -1 83
Width: 686
Flags: HW
HStem: -786 96<121 251.22> 260 86<155 411 525 781> 1293 93<658.205 818.32>
VStem: 411 114<-513.355 260 346 1120.69>
LayerCount: 2
Fore
SplineSet
411 994 m 2
 411 1213 577 1386 772 1386 c 0
 795 1386 817 1384 840 1379 c 1
 815 1285 l 1
 788 1290 761 1293 733 1293 c 0
 598 1293 525 1145 525 994 c 2
 525 346 l 1
 781 346 l 1
 781 260 l 1
 525 260 l 1
 525 -388 l 2
 525 -608 345 -786 126 -786 c 0
 124 -786 123 -786 121 -786 c 1
 108 -690 l 1
 190 -690 l 2
 330 -690 411 -542 411 -388 c 2
 411 260 l 1
 155 260 l 1
 155 346 l 1
 411 346 l 1
 411 994 l 2
EndSplineSet
EndChar

StartChar: uni2A0E
Encoding: 84 10766 84
Width: 600
Flags: HW
HStem: -303 82<112 202.015> 171 74<113 251 349 487> 361 74<113 251 349 487> 823 80<387.94 488.284>
VStem: 251 98<-165.975 171 245 361 435 772.775>
LayerCount: 2
Fore
SplineSet
113 361 m 1
 113 435 l 1
 251 435 l 1
 251 676 l 2
 251 798 342 902 461 903 c 0
 477 903 493 901 509 897 c 1
 488 817 l 1
 472 821 456 823 439 823 c 0
 376 823 349 749 349 676 c 2
 349 435 l 1
 487 435 l 1
 487 361 l 1
 349 361 l 1
 349 245 l 1
 487 245 l 1
 487 171 l 1
 349 171 l 1
 349 -71 l 2
 349 -199 245 -303 117 -303 c 0
 115 -303 114 -303 112 -303 c 1
 101 -221 l 1
 150 -221 l 2
 217 -221 251 -146 251 -71 c 2
 251 171 l 1
 113 171 l 1
 113 245 l 1
 251 245 l 1
 251 361 l 1
 113 361 l 1
EndSplineSet
EndChar

StartChar: uni2A0E.disp
Encoding: 85 -1 85
Width: 686
Flags: HW
HStem: -786 96<121 251.22> 165 86<155 411 525 781> 355 86<155 411 525 781> 1293 93<658.205 818.32>
VStem: 411 114<-513.355 165 251 355 441 1120.69>
LayerCount: 2
Fore
SplineSet
411 994 m 2
 411 1213 577 1386 772 1386 c 0
 795 1386 817 1384 840 1379 c 1
 815 1285 l 1
 788 1290 761 1293 733 1293 c 0
 598 1293 525 1145 525 994 c 2
 525 441 l 1
 781 441 l 1
 781 355 l 1
 525 355 l 1
 525 251 l 1
 781 251 l 1
 781 165 l 1
 525 165 l 1
 525 -388 l 2
 525 -608 345 -786 126 -786 c 0
 124 -786 123 -786 121 -786 c 1
 108 -690 l 1
 190 -690 l 2
 330 -690 411 -542 411 -388 c 2
 411 165 l 1
 155 165 l 1
 155 251 l 1
 411 251 l 1
 411 355 l 1
 155 355 l 1
 155 441 l 1
 411 441 l 1
 411 994 l 2
EndSplineSet
EndChar

StartChar: uni2A0F
Encoding: 86 10767 86
Width: 476
Flags: HW
HStem: -303 82<112 202.015> 823 80<387.94 488.284>
VStem: 251 98<-165.975 223 382 772.775>
LayerCount: 2
Fore
SplineSet
119 131 m 1
 76 191 l 1
 251 314 l 1
 251 676 l 2
 251 798 342 902 461 903 c 0
 477 903 493 901 509 897 c 1
 488 817 l 1
 472 821 456 823 439 823 c 0
 376 823 349 749 349 676 c 2
 349 382 l 1
 481 475 l 1
 524 414 l 1
 349 292 l 1
 349 -71 l 2
 349 -199 245 -303 117 -303 c 0
 115 -303 114 -303 112 -303 c 1
 101 -221 l 1
 150 -221 l 2
 217 -221 251 -146 251 -71 c 2
 251 223 l 1
 119 131 l 1
EndSplineSet
EndChar

StartChar: uni2A0F.disp
Encoding: 87 -1 87
Width: 686
Flags: HW
HStem: -786 96<121 251.22> 1293 93<658.205 818.32>
VStem: 411 114<-513.355 211 396 1120.69>
LayerCount: 2
Fore
SplineSet
411 994 m 2
 411 1213 577 1386 772 1386 c 0
 795 1386 817 1384 840 1379 c 1
 815 1285 l 1
 788 1290 761 1293 733 1293 c 0
 598 1293 525 1145 525 994 c 2
 525 396 l 1
 788 580 l 1
 837 509 l 1
 525 291 l 1
 525 -388 l 2
 525 -608 345 -786 126 -786 c 0
 124 -786 123 -786 121 -786 c 1
 108 -690 l 1
 190 -690 l 2
 330 -690 411 -542 411 -388 c 2
 411 211 l 1
 148 27 l 1
 99 97 l 1
 411 316 l 1
 411 994 l 2
EndSplineSet
EndChar

StartChar: uni222E
Encoding: 88 8750 88
Width: 660
Flags: HW
HStem: -303 82<142 232.015> 65 76<240.924 281 379 419.076> 459 76<240.924 281 379 419.076> 823 80<417.94 518.284>
VStem: 90 74<218.772 381.228> 281 98<-165.975 70.166 141 459 529.834 772.775> 496 74<218.772 381.228>
CounterMasks: 1 0e
LayerCount: 2
Fore
SplineSet
281 459 m 1
 220 440 164 380 164 300 c 0
 164 220 220 160 281 141 c 1
 281 459 l 1
379 141 m 1
 440 160 496 220 496 300 c 0
 496 380 440 440 379 459 c 1
 379 141 l 1
90 300 m 0
 90 415 170 512 281 535 c 1
 281 676 l 2
 281 798 372 902 491 903 c 0
 507 903 523 901 539 897 c 1
 518 817 l 1
 502 821 486 823 469 823 c 0
 406 823 379 749 379 676 c 2
 379 535 l 1
 490 512 570 415 570 300 c 0
 570 185 490 88 379 65 c 1
 379 -71 l 2
 379 -199 275 -303 147 -303 c 0
 145 -303 144 -303 142 -303 c 1
 131 -221 l 1
 180 -221 l 2
 247 -221 281 -146 281 -71 c 2
 281 65 l 1
 170 88 90 185 90 300 c 0
EndSplineSet
EndChar

StartChar: uni222E.disp
Encoding: 89 -1 89
Width: 794
Flags: HW
HStem: -786 96<175 305.22> -128 87<397.345 465 579 646.655> 641 87<397.345 465 579 646.655> 1293 93<712.205 872.32>
VStem: 90 86<180.629 419.371> 465 114<-513.355 -124.925 -41 641 724.925 1120.69> 868 86<180.629 419.371>
CounterMasks: 1 0e
LayerCount: 2
Fore
SplineSet
465 641 m 1
 298 613 176 470 176 300 c 0
 176 130 298 -13 465 -41 c 1
 465 641 l 1
579 -41 m 1
 746 -13 868 130 868 300 c 0
 868 470 746 613 579 641 c 1
 579 -41 l 1
465 994 m 2
 465 1213 631 1386 826 1386 c 0
 849 1386 871 1384 894 1379 c 1
 869 1285 l 1
 842 1290 815 1293 787 1293 c 0
 652 1293 579 1145 579 994 c 2
 579 728 l 1
 791 700 954 517 954 300 c 0
 954 83 791 -100 579 -128 c 1
 579 -388 l 2
 579 -608 399 -786 180 -786 c 0
 178 -786 177 -786 175 -786 c 1
 162 -690 l 1
 244 -690 l 2
 384 -690 465 -542 465 -388 c 2
 465 -128 l 1
 253 -100 90 83 90 300 c 0
 90 517 253 700 465 728 c 1
 465 994 l 2
EndSplineSet
EndChar

StartChar: uni222F
Encoding: 90 8751 90
Width: 960
Flags: HW
HStem: -303 82<142 232.015 442 532.015> 60 74<379 581> 466 74<379 581> 823 80<417.94 518.284 717.94 818.284>
VStem: 90 74<226.773 373.711> 281 98<-165.975 64 159 441 536 772.775> 581 98<-165.975 64 159 441 536 772.775> 796 74<226.349 373.227>
LayerCount: 2
Fore
SplineSet
281 441 m 1
 237 426 164 387 164 300 c 0
 164 262 179 195 281 159 c 1
 281 441 l 1
581 138 m 1
 581 462 l 1
 548 465 514 466 480 466 c 0
 446 466 412 465 379 462 c 1
 379 138 l 1
 412 135 446 134 480 134 c 0
 514 134 548 135 581 138 c 1
679 159 m 1
 723 174 796 213 796 300 c 0
 796 338 781 405 679 441 c 1
 679 159 l 1
90 300 m 0
 90 363 115 475 281 520 c 1
 281 676 l 2
 281 798 372 902 491 903 c 0
 507 903 523 901 539 897 c 1
 518 817 l 1
 502 821 486 823 469 823 c 0
 406 823 379 749 379 676 c 2
 379 536 l 1
 412 539 446 540 480 540 c 0
 514 540 548 539 581 536 c 1
 581 676 l 2
 581 798 672 902 791 903 c 0
 807 903 824 901 839 897 c 1
 818 817 l 1
 802 821 786 823 769 823 c 0
 706 823 679 749 679 676 c 2
 679 520 l 1
 712 511 743 498 773 480 c 0
 835 442 870 373 870 300 c 0
 870 229 840 124 679 80 c 1
 679 -71 l 2
 679 -199 575 -303 447 -303 c 0
 445 -303 444 -303 442 -303 c 1
 431 -221 l 1
 480 -221 l 2
 547 -221 581 -146 581 -71 c 2
 581 64 l 1
 548 61 514 60 480 60 c 0
 446 60 412 61 379 64 c 1
 379 -71 l 2
 379 -199 275 -303 147 -303 c 0
 145 -303 144 -303 142 -303 c 1
 131 -221 l 1
 180 -221 l 2
 247 -221 281 -146 281 -71 c 2
 281 80 l 1
 248 89 217 102 188 120 c 0
 126 158 90 227 90 300 c 0
EndSplineSet
EndChar

StartChar: uni222F.disp
Encoding: 91 -1 91
Width: 1334
Flags: HW
HStem: -786 96<175 305.22 715 845.22> -132 86<582.283 1001.72> 646 86<582.283 1001.72> 1285 94<827.077 870.862 1367.08 1410.86> 1293 93<712.205 872.32 1252.21 1412.32>
VStem: 90 86<192.758 407.242> 465 114<-513.355 -122 -14 614 722 1120.69> 1005 114<-513.355 -122 -14 614 722 1120.69> 1408 86<192.758 407.242>
LayerCount: 2
Fore
SplineSet
465 -14 m 1xe780
 465 614 l 1
 418 601 373 584 330 560 c 0
 236 507 176 408 176 300 c 0
 176 192 236 93 330 40 c 0
 373 16 418 -1 465 -14 c 1xe780
1005 -36 m 1
 1005 636 l 1
 935 645 863 646 792 646 c 0
 721 646 649 645 579 636 c 1
 579 -36 l 1
 649 -45 721 -46 792 -46 c 0
 863 -46 935 -45 1005 -36 c 1
1408 300 m 0
 1408 408 1348 507 1254 560 c 0
 1211 584 1166 601 1119 614 c 1
 1119 -14 l 1
 1166 -1 1211 16 1254 40 c 0
 1348 93 1408 192 1408 300 c 0
1005 994 m 2
 1005 1213 1171 1386 1366 1386 c 0xef80
 1389 1386 1411 1384 1434 1379 c 1
 1409 1285 l 1xf780
 1382 1290 1355 1293 1327 1293 c 0
 1192 1293 1119 1145 1119 994 c 2
 1119 703 l 1
 1189 687 1257 662 1319 624 c 0
 1430 555 1494 431 1494 300 c 0
 1494 169 1430 45 1319 -24 c 0
 1257 -62 1189 -87 1119 -103 c 1
 1119 -388 l 2
 1119 -608 939 -786 720 -786 c 0
 718 -786 717 -786 715 -786 c 1
 702 -690 l 1
 784 -690 l 2
 924 -690 1005 -542 1005 -388 c 2
 1005 -122 l 1
 935 -130 863 -132 792 -132 c 0
 721 -132 649 -130 579 -122 c 1
 579 -388 l 2
 579 -608 399 -786 180 -786 c 0
 178 -786 177 -786 175 -786 c 1
 162 -690 l 1
 244 -690 l 2
 384 -690 465 -542 465 -388 c 2
 465 -103 l 1
 395 -87 328 -62 266 -24 c 0
 154 45 90 169 90 300 c 0
 90 431 154 555 266 624 c 0
 328 662 395 687 465 703 c 1
 465 994 l 2
 465 1213 631 1386 826 1386 c 0xef80
 849 1386 871 1384 894 1379 c 1
 869 1285 l 1xf780
 842 1290 815 1293 787 1293 c 0xef80
 652 1293 579 1145 579 994 c 2
 579 722 l 1
 649 730 721 732 792 732 c 0
 863 732 935 730 1005 722 c 1
 1005 994 l 2
EndSplineSet
EndChar

StartChar: uni2230
Encoding: 92 8752 92
Width: 1260
Flags: HW
HStem: -303 82<142 232.015 442 532.015 742 832.015> 75 75<379 577.813 682.187 881> 450 75<379 577.813 682.187 881> 823 80<417.94 518.284 717.94 818.284 1017.94 1118.28>
VStem: 90 74<238.985 361.421> 281 98<-165.975 75 175 425 525 772.775> 581 98<-165.975 60 134 466 540 772.775> 881 98<-165.975 75 175 425 525 772.775> 1096 74<239.267 360.328>
LayerCount: 2
Fore
SplineSet
281 175 m 1
 281 425 l 1
 220 403 164 362 164 300 c 0
 164 238 220 197 281 175 c 1
379 150 m 1
 445 138 513 135 581 134 c 1
 581 466 l 1
 513 465 445 462 379 450 c 1
 379 150 l 1
679 134 m 1
 747 135 815 138 881 150 c 1
 881 450 l 1
 815 462 747 465 679 466 c 1
 679 134 l 1
979 175 m 1
 1004 184 1096 221 1096 300 c 0
 1096 379 1004 416 979 425 c 1
 979 175 l 1
90 300 m 0
 90 358 119 449 281 501 c 1
 281 676 l 2
 281 798 372 902 491 903 c 0
 507 903 523 901 539 897 c 1
 518 817 l 1
 502 821 486 823 469 823 c 0
 406 823 379 749 379 676 c 2
 379 525 l 1
 445 536 513 539 581 540 c 1
 581 676 l 2
 581 798 672 902 791 903 c 0
 807 903 824 901 839 897 c 1
 818 817 l 1
 802 821 786 823 769 823 c 0
 706 823 679 749 679 676 c 2
 679 540 l 1
 747 539 815 536 881 525 c 1
 881 676 l 2
 881 798 972 902 1091 903 c 0
 1107 903 1124 901 1139 897 c 1
 1118 817 l 1
 1102 821 1086 823 1069 823 c 0
 1006 823 979 749 979 676 c 2
 979 501 l 1
 998 495 1017 488 1035 480 c 0
 1110 447 1170 381 1170 300 c 0
 1170 242 1141 151 979 99 c 1
 979 -71 l 2
 979 -199 875 -303 747 -303 c 0
 745 -303 744 -303 742 -303 c 1
 731 -221 l 1
 780 -221 l 2
 847 -221 881 -146 881 -71 c 2
 881 75 l 1
 815 64 747 61 679 60 c 1
 679 -71 l 2
 679 -199 575 -303 447 -303 c 0
 445 -303 444 -303 442 -303 c 1
 431 -221 l 1
 480 -221 l 2
 547 -221 581 -146 581 -71 c 2
 581 60 l 1
 513 61 445 64 379 75 c 1
 379 -71 l 2
 379 -199 275 -303 147 -303 c 0
 145 -303 144 -303 142 -303 c 1
 131 -221 l 1
 180 -221 l 2
 247 -221 281 -146 281 -71 c 2
 281 99 l 1
 262 105 243 112 225 120 c 0
 150 153 90 219 90 300 c 0
EndSplineSet
EndChar

StartChar: uni2230.disp
Encoding: 93 -1 93
Width: 1874
Flags: HW
HStem: -786 96<175 305.22 715 845.22 1255 1385.22> -99 87<579 723.872 1400.13 1545> 612 87<579 723.872 1400.13 1545> 1285 94<827.077 870.862 1367.08 1410.86 1907.08 1950.86> 1293 93<712.205 872.32 1252.21 1412.32 1792.21 1952.32>
VStem: 90 86<208.761 391.239> 465 114<-513.355 -99 16 584 699 1120.69> 1005 114<-513.355 -132 -46 646 732 1120.69> 1545 114<-513.355 -99 16 584 699 1120.69> 1948 86<208.761 391.239>
LayerCount: 2
Fore
SplineSet
465 16 m 1xe7c0
 465 584 l 1
 442 577 419 569 397 560 c 0
 279 514 176 423 176 300 c 0
 176 177 279 86 397 40 c 0
 419 31 442 23 465 16 c 1xe7c0
579 -12 m 1
 718 -40 862 -45 1005 -46 c 1
 1005 646 l 1
 862 645 718 640 579 612 c 1
 579 -12 l 1
1119 -46 m 1
 1262 -45 1406 -40 1545 -12 c 1
 1545 612 l 1
 1406 640 1262 645 1119 646 c 1
 1119 -46 l 1
1948 300 m 0
 1948 423 1845 514 1727 560 c 0
 1705 569 1682 577 1659 584 c 1
 1659 16 l 1
 1682 23 1705 31 1727 40 c 0
 1845 86 1948 177 1948 300 c 0
1545 994 m 2
 1545 1213 1711 1386 1906 1386 c 0xefc0
 1929 1386 1951 1384 1974 1379 c 1
 1949 1285 l 1xf7c0
 1922 1290 1895 1293 1867 1293 c 0
 1732 1293 1659 1145 1659 994 c 2
 1659 672 l 1
 1704 659 1748 643 1791 624 c 0
 1927 564 2034 446 2034 300 c 0
 2034 154 1927 36 1791 -24 c 0
 1748 -43 1704 -59 1659 -72 c 1
 1659 -388 l 2
 1659 -608 1479 -786 1260 -786 c 0
 1258 -786 1257 -786 1255 -786 c 1
 1242 -690 l 1
 1324 -690 l 2
 1464 -690 1545 -542 1545 -388 c 2
 1545 -99 l 1
 1406 -125 1262 -131 1119 -132 c 1
 1119 -388 l 2
 1119 -608 939 -786 720 -786 c 0
 718 -786 717 -786 715 -786 c 1
 702 -690 l 1
 784 -690 l 2
 924 -690 1005 -542 1005 -388 c 2
 1005 -132 l 1
 862 -131 718 -125 579 -99 c 1
 579 -388 l 2
 579 -608 399 -786 180 -786 c 0
 178 -786 177 -786 175 -786 c 1
 162 -690 l 1
 244 -690 l 2
 384 -690 465 -542 465 -388 c 2
 465 -72 l 1
 420 -59 376 -43 333 -24 c 0
 198 36 90 154 90 300 c 0
 90 446 198 564 333 624 c 0
 376 643 420 659 465 672 c 1
 465 994 l 2
 465 1213 631 1386 826 1386 c 0xefc0
 849 1386 871 1384 894 1379 c 1
 869 1285 l 1xf7c0
 842 1290 815 1293 787 1293 c 0
 652 1293 579 1145 579 994 c 2
 579 699 l 1
 718 725 862 731 1005 732 c 1
 1005 994 l 2
 1005 1213 1171 1386 1366 1386 c 0xefc0
 1389 1386 1411 1384 1434 1379 c 1
 1409 1285 l 1xf7c0
 1382 1290 1355 1293 1327 1293 c 0xefc0
 1192 1293 1119 1145 1119 994 c 2
 1119 732 l 1
 1262 731 1406 725 1545 699 c 1
 1545 994 l 2
EndSplineSet
EndChar

StartChar: uni2233
Encoding: 94 8755 94
Width: 720
Flags: HW
HStem: -303 82<142 232.015> 68 76<238.328 281 379 423.205> 461 77<239.886 281 379 424.777> 823 80<417.94 518.284>
VStem: 90 74<222.615 384.949> 281 98<-165.975 71.5384 144 461 533.284 772.775>
LayerCount: 2
Fore
SplineSet
281 461 m 1
 212 439 164 376 164 303 c 0
 164 229 213 165 281 144 c 1
 281 461 l 1
90 303 m 0
 90 429 182 517 281 538 c 1
 281 676 l 2
 281 798 372 902 491 903 c 0
 507 903 523 901 539 897 c 1
 518 817 l 1
 502 821 486 823 469 823 c 0
 406 823 379 749 379 676 c 2
 379 537 l 1
 409 531 501 504 548 404 c 1
 480 373 l 1
 472 391 444 442 379 462 c 1
 379 144 l 1
 398 150 455 171 483 237 c 1
 424 204 l 1
 393 258 l 1
 544 345 l 1
 568 303 l 1
 570 303 l 1
 570 302 570 301 570 300 c 2
 631 194 l 1
 578 163 l 1
 551 209 l 1
 540 183 493 91 379 67 c 1
 379 -71 l 2
 379 -199 275 -303 147 -303 c 0
 145 -303 144 -303 142 -303 c 1
 131 -221 l 1
 180 -221 l 2
 247 -221 281 -146 281 -71 c 2
 281 68 l 1
 177 90 90 180 90 303 c 0
EndSplineSet
EndChar

StartChar: uni2233.disp
Encoding: 95 -1 95
Width: 902
Flags: HW
HStem: -786 96<175 305.22> -125 87<388.974 465 579 652.191> 645 86<396.564 465 579 647.775> 1293 93<712.205 872.32>
VStem: 90 86<183.136 420.518> 465 114<-513.355 -122.53 -38 644 728.082 1120.69>
LayerCount: 2
Fore
SplineSet
465 645 m 1
 294 617 176 467 176 302 c 0
 176 137 294 -9 465 -38 c 1
 465 645 l 1
465 994 m 2
 465 1213 631 1386 826 1386 c 0
 849 1386 871 1384 894 1379 c 1
 869 1285 l 1
 842 1290 815 1293 787 1293 c 0
 652 1293 579 1145 579 994 c 2
 579 731 l 1
 633 724 819 685 914 486 c 1
 836 449 l 1
 781 567 676 627 579 644 c 1
 579 -39 l 1
 688 -21 825 63 861 232 c 1
 706 143 l 1
 670 205 l 1
 924 352 l 1
 952 303 l 1
 954 303 l 1
 954 302 954 301 954 300 c 2
 1071 97 l 1
 1009 62 l 1
 938 185 l 1
 895 29 759 -102 579 -125 c 1
 579 -388 l 2
 579 -608 399 -786 180 -786 c 0
 178 -786 177 -786 175 -786 c 1
 162 -690 l 1
 244 -690 l 2
 384 -690 465 -542 465 -388 c 2
 465 -125 l 1
 255 -97 90 81 90 302 c 0
 90 519 250 703 465 731 c 1
 465 994 l 2
EndSplineSet
EndChar

StartChar: uni2232.alt
Encoding: 96 -1 96
Width: 720
Flags: HW
HStem: -303 82<142 232.015> 68 76<238.328 281 379 421.551> 461 77<239.886 281 379 423.837> 823 80<417.94 518.284>
VStem: 90 74<222.615 384.949> 281 98<-165.975 71.1479 144 461 533.284 772.775>
LayerCount: 2
Fore
SplineSet
281 461 m 1
 212 439 164 376 164 303 c 0
 164 229 213 165 281 144 c 1
 281 461 l 1
379 537 m 1
 463 519 525 460 551 396 c 1
 578 442 l 1
 631 411 l 1
 570 305 l 2
 570 304 570 304 570 303 c 1
 569 303 l 1
 544 260 l 1
 393 348 l 1
 424 401 l 1
 483 368 l 1
 467 404 436 445 379 462 c 1
 379 144 l 1
 428 159 468 197 486 246 c 1
 556 221 l 1
 547 196 502 93 379 67 c 1
 379 -71 l 2
 379 -199 275 -303 147 -303 c 0
 145 -303 144 -303 142 -303 c 1
 131 -221 l 1
 180 -221 l 2
 247 -221 281 -146 281 -71 c 2
 281 68 l 1
 177 90 90 180 90 303 c 0
 90 429 182 517 281 538 c 1
 281 676 l 2
 281 798 372 902 491 903 c 0
 507 903 523 901 539 897 c 1
 518 817 l 1
 502 821 486 823 469 823 c 0
 406 823 379 749 379 676 c 2
 379 537 l 1
EndSplineSet
EndChar

StartChar: uni2232.alt.disp
Encoding: 97 -1 97
Width: 902
Flags: HW
HStem: -786 96<175 305.22> -125 87<388.974 465 579 653.332> 645 86<396.564 465 579 647.937> 1293 93<712.205 872.32>
VStem: 90 86<183.136 420.518> 465 114<-513.355 -123.372 -38 644 728.655 1120.69>
LayerCount: 2
Fore
SplineSet
465 645 m 1
 294 617 176 467 176 302 c 0
 176 137 294 -9 465 -38 c 1
 465 645 l 1
579 731 m 1
 746 709 891 590 938 421 c 1
 1009 544 l 1
 1071 509 l 1
 954 306 l 2
 954 305 954 304 954 303 c 1
 952 303 l 1
 924 254 l 1
 670 401 l 1
 706 463 l 1
 861 373 l 1
 832 515 718 620 579 644 c 1
 579 -39 l 1
 615 -33 783 5 847 185 c 1
 928 155 l 1
 914 116 826 -93 579 -125 c 1
 579 -388 l 2
 579 -608 399 -786 180 -786 c 0
 178 -786 177 -786 175 -786 c 1
 162 -690 l 1
 244 -690 l 2
 384 -690 465 -542 465 -388 c 2
 465 -125 l 1
 255 -97 90 81 90 302 c 0
 90 519 250 703 465 731 c 1
 465 994 l 2
 465 1213 631 1386 826 1386 c 0
 849 1386 871 1384 894 1379 c 1
 869 1285 l 1
 842 1290 815 1293 787 1293 c 0
 652 1293 579 1145 579 994 c 2
 579 731 l 1
EndSplineSet
EndChar

StartChar: uni2233.alt
Encoding: 98 -1 98
Width: 720
Flags: HW
HStem: -303 82<202 292.015> 68 76<297.976 341 439 481.36> 462 75<439 481.785> 823 80<477.94 578.284>
VStem: 341 98<-165.975 71.9353 144 461 533.455 772.775> 556 74<220.998 382.993>
LayerCount: 2
Fore
SplineSet
439 144 m 1
 508 165 556 229 556 302 c 0
 556 373 510 440 439 462 c 1
 439 144 l 1
630 302 m 0
 630 181 542 89 439 67 c 1
 439 -71 l 2
 439 -199 335 -303 207 -303 c 0
 205 -303 204 -303 202 -303 c 1
 191 -221 l 1
 240 -221 l 2
 307 -221 341 -146 341 -71 c 2
 341 68 l 1
 311 74 219 101 172 201 c 1
 240 232 l 1
 248 215 276 164 341 144 c 1
 341 461 l 1
 320 454 264 431 237 367 c 1
 296 401 l 1
 327 348 l 1
 176 260 l 1
 151 303 l 1
 150 303 l 1
 150 304 150 304 150 305 c 2
 89 411 l 1
 142 442 l 1
 168 396 l 1
 179 421 226 514 341 538 c 1
 341 676 l 2
 341 798 432 902 551 903 c 0
 567 903 584 901 599 897 c 1
 578 817 l 1
 562 821 546 823 529 823 c 0
 466 823 439 749 439 676 c 2
 439 537 l 1
 544 515 630 424 630 302 c 0
EndSplineSet
EndChar

StartChar: uni2233.alt.disp
Encoding: 99 -1 99
Width: 902
Flags: HW
HStem: -786 96<283 413.22> -125 87<501.074 573 687 763.026> 645 86<501.287 573 687 754.134> 1293 93<820.205 980.32>
VStem: 573 114<-513.355 -122.082 -38 644 728.53 1120.69> 976 86<185.482 422.864>
LayerCount: 2
Fore
SplineSet
687 -39 m 1
 858 -11 976 139 976 304 c 0
 976 469 858 615 687 644 c 1
 687 -39 l 1
1062 304 m 0
 1062 87 902 -97 687 -125 c 1
 687 -388 l 2
 687 -608 507 -786 288 -786 c 0
 286 -786 285 -786 283 -786 c 1
 270 -690 l 1
 352 -690 l 2
 492 -690 573 -542 573 -388 c 2
 573 -125 l 1
 519 -118 333 -79 238 120 c 1
 316 157 l 1
 371 39 476 -21 573 -38 c 1
 573 645 l 1
 457 626 325 537 291 374 c 1
 446 463 l 1
 482 401 l 1
 228 254 l 1
 200 303 l 1
 198 303 l 1
 198 304 198 305 198 306 c 2
 81 509 l 1
 143 544 l 1
 214 421 l 1
 257 577 393 708 573 731 c 1
 573 994 l 2
 573 1213 739 1386 934 1386 c 0
 957 1386 979 1384 1002 1379 c 1
 977 1285 l 1
 950 1290 923 1293 895 1293 c 0
 760 1293 687 1145 687 994 c 2
 687 731 l 1
 897 703 1062 525 1062 304 c 0
EndSplineSet
EndChar

StartChar: uni2232
Encoding: 100 8754 100
Width: 720
Flags: HW
HStem: -303 82<202 292.015> 68 76<296.586 341 439 481.36> 462 75<439 481.785> 823 80<477.94 578.284>
VStem: 341 98<-165.975 71.9353 144 461 533.455 772.775> 556 74<220.998 382.993>
LayerCount: 2
Fore
SplineSet
439 144 m 1
 508 165 556 229 556 302 c 0
 556 373 510 440 439 462 c 1
 439 144 l 1
341 68 m 1
 249 87 191 154 169 209 c 1
 142 163 l 1
 89 194 l 1
 150 300 l 2
 150 301 150 302 150 303 c 1
 152 303 l 1
 176 345 l 1
 327 258 l 1
 296 204 l 1
 237 237 l 1
 250 209 280 163 341 144 c 1
 341 461 l 1
 320 454 259 430 234 359 c 1
 164 385 l 1
 195 470 268 523 341 538 c 1
 341 676 l 2
 341 798 432 902 551 903 c 0
 567 903 584 901 599 897 c 1
 578 817 l 1
 562 821 546 823 529 823 c 0
 466 823 439 749 439 676 c 2
 439 537 l 1
 544 515 630 424 630 302 c 0
 630 181 542 89 439 67 c 1
 439 -71 l 2
 439 -199 335 -303 207 -303 c 0
 205 -303 204 -303 202 -303 c 1
 191 -221 l 1
 240 -221 l 2
 307 -221 341 -146 341 -71 c 2
 341 68 l 1
EndSplineSet
EndChar

StartChar: uni2232.disp
Encoding: 101 -1 101
Width: 902
Flags: HW
HStem: -786 96<283 413.22> -125 87<496.62 573 687 763.026> 645 86<507.654 573 687 754.134> 1293 93<820.205 980.32>
VStem: 573 114<-513.355 -122.655 -38 644 729.372 1120.69> 976 86<185.482 422.864>
LayerCount: 2
Fore
SplineSet
687 -39 m 1
 858 -11 976 139 976 304 c 0
 976 469 858 615 687 644 c 1
 687 -39 l 1
573 -125 m 1
 406 -103 261 16 214 185 c 1
 143 62 l 1
 81 97 l 1
 198 300 l 2
 198 301 198 302 198 303 c 1
 200 303 l 1
 228 352 l 1
 482 205 l 1
 446 143 l 1
 291 233 l 1
 296 210 345 1 573 -38 c 1
 573 645 l 1
 537 639 369 601 305 421 c 1
 224 451 l 1
 238 490 326 699 573 731 c 1
 573 994 l 2
 573 1213 739 1386 934 1386 c 0
 957 1386 979 1384 1002 1379 c 1
 977 1285 l 1
 950 1290 923 1293 895 1293 c 0
 760 1293 687 1145 687 994 c 2
 687 731 l 1
 897 703 1062 525 1062 304 c 0
 1062 87 902 -97 687 -125 c 1
 687 -388 l 2
 687 -608 507 -786 288 -786 c 0
 286 -786 285 -786 283 -786 c 1
 270 -690 l 1
 352 -690 l 2
 492 -690 573 -542 573 -388 c 2
 573 -125 l 1
EndSplineSet
EndChar

StartChar: uni2A0B
Encoding: 102 10763 102
Width: 630
Flags: HW
HStem: -303 82<142 232.015> 20 69<192 281> 529 56<211 281 379 451.825> 823 80<417.94 518.284>
VStem: 281 98<-165.975 20 98 203 428 526 585 772.775> 485 30<458 485.761>
LayerCount: 2
Fore
SplineSet
281 203 m 1
 192 82 l 1
 281 89 l 1
 281 203 l 1
281 528 m 1
 211 529 l 1
 281 428 l 1
 281 528 l 1
110 20 m 1
 95 82 l 1
 250 293 l 1
 95 517 l 1
 111 585 l 1
 281 585 l 1
 281 676 l 2
 281 798 372 902 491 903 c 0
 507 903 523 901 539 897 c 1
 518 817 l 1
 502 821 486 823 469 823 c 0
 406 823 379 749 379 676 c 2
 379 585 l 1
 515 585 l 1
 515 458 l 1
 485 458 l 1
 470 492 446 525 410 526 c 2
 379 526 l 1
 379 98 l 1
 396 99 l 2
 440 103 491 109 500 151 c 1
 530 144 l 1
 496 20 l 1
 379 20 l 1
 379 -71 l 2
 379 -199 275 -303 147 -303 c 0
 145 -303 144 -303 142 -303 c 1
 131 -221 l 1
 180 -221 l 2
 247 -221 281 -146 281 -71 c 2
 281 20 l 1
 110 20 l 1
EndSplineSet
EndChar

StartChar: uni2A0B.disp
Encoding: 103 -1 103
Width: 882
Flags: HW
HStem: -786 96<175 305.22> -206 83<421.182 465 579 645.889> -206 72<224 377.364> 745 67<246 465 579 776.563> 1293 93<712.205 872.32>
VStem: 465 114<-513.355 -206 -118 191 441 744 812 1120.69> 836 35<665 691.203> 854 35<-80.753 -61.4>
LayerCount: 2
Fore
SplineSet
465 191 m 1xdc
 224 -134 l 1xbc
 465 -123 l 1
 465 191 l 1xdc
465 745 m 1
 246 747 l 1
 465 441 l 1
 465 745 l 1
465 994 m 2
 465 1213 631 1386 826 1386 c 0
 849 1386 871 1384 894 1379 c 1
 869 1285 l 1
 842 1290 815 1293 787 1293 c 0
 652 1293 579 1145 579 994 c 2
 579 812 l 1
 871 812 l 1
 871 665 l 1
 836 665 l 1xbe
 812 722 746 742 682 743 c 2
 579 744 l 1
 579 -118 l 1
 665 -114 l 2
 743 -111 842 -106 854 -55 c 1
 889 -63 l 1
 849 -206 l 1xbd
 579 -206 l 1
 579 -388 l 2
 579 -608 399 -786 180 -786 c 0
 178 -786 177 -786 175 -786 c 1
 162 -690 l 1
 244 -690 l 2
 384 -690 465 -542 465 -388 c 2
 465 -206 l 1xdd
 132 -206 l 1
 115 -134 l 1
 431 292 l 1
 115 732 l 1
 134 812 l 1
 465 812 l 1
 465 994 l 2
EndSplineSet
EndChar

StartChar: uni2A0B.sf
Encoding: 104 -1 104
Width: 630
Flags: HW
HStem: -303 82<142 232.015> 20 85<208 281 379 515> 501 84<208 281 379 515> 823 80<417.94 518.284>
VStem: 281 98<-165.975 20 105 199 407 501 585 772.775>
LayerCount: 2
Fore
SplineSet
281 199 m 1
 208 105 l 1
 281 105 l 1
 281 199 l 1
281 501 m 1
 208 501 l 1
 281 407 l 1
 281 501 l 1
95 20 m 1
 95 105 l 1
 249 303 l 1
 95 501 l 1
 95 585 l 1
 281 585 l 1
 281 676 l 2
 281 798 372 902 491 903 c 0
 507 903 523 901 539 897 c 1
 518 817 l 1
 502 821 486 823 469 823 c 0
 406 823 379 749 379 676 c 2
 379 585 l 1
 515 585 l 1
 515 501 l 1
 379 501 l 1
 379 105 l 1
 515 105 l 1
 515 20 l 1
 379 20 l 1
 379 -71 l 2
 379 -199 275 -303 147 -303 c 0
 145 -303 144 -303 142 -303 c 1
 131 -221 l 1
 180 -221 l 2
 247 -221 281 -146 281 -71 c 2
 281 20 l 1
 95 20 l 1
EndSplineSet
EndChar

StartChar: uni2A0B.sf.disp
Encoding: 105 -1 105
Width: 882
Flags: HW
HStem: -786 96<175 305.22> -206 98<243 465 579 871> 714 98<243 465 579 871> 1293 93<712.205 872.32>
VStem: 465 114<-513.355 -206 -108 183 423 714 812 1120.69>
LayerCount: 2
Fore
SplineSet
465 183 m 1
 243 -108 l 1
 465 -108 l 1
 465 183 l 1
465 714 m 1
 243 714 l 1
 465 423 l 1
 465 714 l 1
465 994 m 2
 465 1213 631 1386 826 1386 c 0
 849 1386 871 1384 894 1379 c 1
 869 1285 l 1
 842 1290 815 1293 787 1293 c 0
 652 1293 579 1145 579 994 c 2
 579 812 l 1
 871 812 l 1
 871 714 l 1
 579 714 l 1
 579 -108 l 1
 871 -108 l 1
 871 -206 l 1
 579 -206 l 1
 579 -388 l 2
 579 -608 399 -786 180 -786 c 0
 178 -786 177 -786 175 -786 c 1
 162 -690 l 1
 244 -690 l 2
 384 -690 465 -542 465 -388 c 2
 465 -206 l 1
 115 -206 l 1
 115 -108 l 1
 430 303 l 1
 115 714 l 1
 115 812 l 1
 465 812 l 1
 465 994 l 2
EndSplineSet
EndChar

StartChar: uni0302
Encoding: 114 770 106
Width: 420
Flags: HW
HStem: 665 173
LayerCount: 2
Fore
SplineSet
-15 733 m 1
 210 838 l 1
 435 733 l 1
 405 665 l 1
 210 750 l 1
 15 665 l 1
 -15 733 l 1
EndSplineSet
EndChar

StartChar: uni0302.big1
Encoding: 115 -1 107
Width: 756
Flags: HW
HStem: 663 175
LayerCount: 2
Fore
SplineSet
-9 735 m 1
 378 838 l 1
 765 735 l 1
 747 663 l 1
 378 750 l 1
 9 663 l 1
 -9 735 l 1
EndSplineSet
EndChar

StartChar: uni0302.big2
Encoding: 116 -1 108
Width: 1092
Flags: HW
HStem: 663 72<4.83333 31.5146 1060.49 1087.17>
LayerCount: 2
Fore
SplineSet
-6 735 m 1
 546 838 l 1
 1098 735 l 1
 1086 663 l 1
 546 750 l 1
 6 663 l 1
 -6 735 l 1
EndSplineSet
EndChar

StartChar: uni0302.big3
Encoding: 117 -1 109
Width: 1428
Flags: HW
HStem: 662 176
LayerCount: 2
Fore
SplineSet
-5 736 m 1
 714 838 l 1
 1433 736 l 1
 1423 662 l 1
 714 750 l 1
 5 662 l 1
 -5 736 l 1
EndSplineSet
EndChar

StartChar: uni0302.big4
Encoding: 118 -1 110
Width: 1764
Flags: HW
HStem: 662 74<3.24324 56.8039>
LayerCount: 2
Fore
SplineSet
-4 736 m 1
 882 838 l 1
 1768 736 l 1
 1760 662 l 1
 882 750 l 1
 4 662 l 1
 -4 736 l 1
EndSplineSet
EndChar

StartChar: uni0302.big5
Encoding: 119 -1 111
Width: 2100
Flags: HW
HStem: 662 74<2.43243 69.2647 2030.74 2097.57>
LayerCount: 2
Fore
SplineSet
-3 736 m 1
 1050 838 l 1
 2103 736 l 1
 2097 662 l 1
 1050 750 l 1
 3 662 l 1
 -3 736 l 1
EndSplineSet
EndChar

StartChar: uni0303
Encoding: 120 771 112
Width: 420
Flags: HW
HStem: 662 74<253.896 347.401> 706 21G<23.561 56.5> 757 74<72.7532 166.104>
LayerCount: 2
Fore
SplineSet
303 662 m 0xa0
 210 662 176 757 117 757 c 0
 87 757 67 729 46 706 c 1x60
 0 747 l 1
 34 785 67 831 117 831 c 0
 210 831 244 736 303 736 c 0
 334 736 353 764 374 787 c 1
 420 747 l 1
 386 708 353 662 303 662 c 0xa0
EndSplineSet
EndChar

StartChar: uni0303.big1
Encoding: 121 -1 113
Width: 756
Flags: HW
HStem: 662 74<448.362 647.362> 757 74<108.638 307.638>
LayerCount: 2
Fore
SplineSet
555 662 m 0
 400 662 337 757 201 757 c 0
 140 757 85 727 33 694 c 1
 0 747 l 1
 63 786 127 831 201 831 c 0
 356 831 419 736 555 736 c 0
 616 736 671 766 723 799 c 1
 756 747 l 1
 693 707 629 662 555 662 c 0
EndSplineSet
EndChar

StartChar: uni0303.big2
Encoding: 122 -1 114
Width: 1092
Flags: HW
HStem: 662 74<647.228 935.144> 757 74<156.856 444.772>
LayerCount: 2
Fore
SplineSet
807 662 m 0
 590 662 485 757 285 757 c 0
 195 757 108 726 25 690 c 1
 0 747 l 1
 92 787 185 831 285 831 c 0
 502 831 607 736 807 736 c 0
 897 736 984 767 1067 803 c 1
 1092 747 l 1
 1000 707 907 662 807 662 c 0
EndSplineSet
EndChar

StartChar: uni0303.big3
Encoding: 123 -1 115
Width: 1428
Flags: HW
HStem: 662 74<845.634 1223.83> 757 74<204.166 582.366>
LayerCount: 2
Fore
SplineSet
1059 662 m 0
 792 662 629 757 369 757 c 0
 250 757 133 726 19 688 c 1
 0 747 l 1
 121 787 242 831 369 831 c 0
 636 831 799 736 1059 736 c 0
 1178 736 1295 767 1409 805 c 1
 1428 747 l 1
 1307 706 1186 662 1059 662 c 0
EndSplineSet
EndChar

StartChar: uni0303.big4
Encoding: 124 -1 116
Width: 1764
Flags: HW
HStem: 662 74<1078.43 1510.97> 757 74<253.029 685.57>
LayerCount: 2
Fore
SplineSet
1311 662 m 0
 1005 662 753 757 453 757 c 0
 305 757 159 725 16 687 c 1
 0 747 l 1
 149 787 299 831 453 831 c 0
 759 831 1011 736 1311 736 c 0
 1459 736 1605 768 1748 806 c 1
 1764 747 l 1
 1615 706 1465 662 1311 662 c 0
EndSplineSet
EndChar

StartChar: uni0303.big5
Encoding: 125 -1 117
Width: 2100
Flags: HW
HStem: 662 74<1330.59 1800.64> 757 74<299.361 769.415>
LayerCount: 2
Fore
SplineSet
1563 662 m 0
 1218 662 876 757 537 757 c 0
 361 757 186 725 14 686 c 1
 0 747 l 1
 177 787 355 831 537 831 c 0
 882 831 1224 736 1563 736 c 0
 1739 736 1914 768 2086 807 c 1
 2100 747 l 1
 1923 706 1745 662 1563 662 c 0
EndSplineSet
EndChar

StartChar: uni0311
Encoding: 126 785 118
Width: 420
Flags: HW
HStem: 757 74<131.205 288.795>
LayerCount: 2
Fore
SplineSet
55 674 m 1
 0 724 l 1
 55 785 128 831 210 831 c 0
 292 831 365 785 420 724 c 1
 365 674 l 1
 324 720 271 757 210 757 c 0
 149 757 96 720 55 674 c 1
EndSplineSet
EndChar

StartChar: uni0311.big1
Encoding: 127 -1 119
Width: 756
Flags: HW
HStem: 757 74<200.622 555.378>
LayerCount: 2
Fore
SplineSet
39 668 m 1
 0 730 l 1
 113 801 245 831 378 831 c 0
 511 831 643 801 756 730 c 1
 717 668 l 1
 616 731 497 757 378 757 c 0
 259 757 140 731 39 668 c 1
EndSplineSet
EndChar

StartChar: uni0311.big2
Encoding: 128 -1 120
Width: 1092
Flags: HW
HStem: 757 74<308.466 783.534>
LayerCount: 2
Fore
SplineSet
30 665 m 1
 0 733 l 1
 171 808 359 831 546 831 c 0
 733 831 921 808 1092 733 c 1
 1062 665 l 1
 900 736 723 757 546 757 c 0
 369 757 192 736 30 665 c 1
EndSplineSet
EndChar

StartChar: uni0311.big3
Encoding: 129 -1 121
Width: 1428
Flags: HW
HStem: 757 74<480.017 948.092>
LayerCount: 2
Fore
SplineSet
23 664 m 1
 0 734 l 1
 230 810 472 831 714 831 c 0
 956 831 1199 810 1428 734 c 1
 1405 664 l 1
 1183 738 948 757 714 757 c 0
 480 757 245 738 23 664 c 1
EndSplineSet
EndChar

StartChar: uni0311.big4
Encoding: 130 -1 122
Width: 1764
Flags: HW
HStem: 663 72<17.1528 80.9989 1683 1746.85> 757 74<648.034 1115.97>
LayerCount: 2
Fore
SplineSet
19 663 m 1
 0 735 l 1
 287 812 585 831 882 831 c 0
 1179 831 1477 812 1764 735 c 1
 1745 663 l 1
 1464 739 1172 757 882 757 c 0
 592 757 300 739 19 663 c 1
EndSplineSet
EndChar

StartChar: uni0311.big5
Encoding: 131 -1 123
Width: 2100
Flags: HW
HStem: 663 72<14.4444 95.6132 2004.39 2085.56> 757 74<820.54 1279.66>
LayerCount: 2
Fore
SplineSet
16 663 m 1
 0 735 l 1
 344 813 698 831 1050 831 c 0
 1403 831 1756 813 2100 735 c 1
 2084 663 l 1
 1745 740 1397 757 1050 757 c 0
 703 757 355 740 16 663 c 1
EndSplineSet
EndChar

StartChar: uni20D7
Encoding: 132 8407 124
Width: 450
Flags: HW
HStem: 727 55<90 355>
LayerCount: 2
Fore
SplineSet
461 755 m 1
 349 642 l 1
 310 682 l 1
 355 727 l 1
 90 727 l 1
 90 782 l 1
 356 782 l 1
 310 827 l 1
 349 867 l 1
 461 755 l 1
EndSplineSet
EndChar

StartChar: uni0335
Encoding: 133 821 125
Width: 300
Flags: HW
HStem: 307 62<3 297>
VStem: -3 306
LayerCount: 2
Fore
SplineSet
3 369 m 1
 303 369 l 1
 297 307 l 1
 -3 307 l 1
 3 369 l 1
EndSplineSet
EndChar

StartChar: uni0337
Encoding: 134 823 126
Width: 300
Flags: HW
HStem: 227 222
VStem: -3 306
LayerCount: 2
Fore
SplineSet
3 301 m 1
 303 449 l 1
 297 375 l 1
 -3 227 l 1
 3 301 l 1
EndSplineSet
EndChar

StartChar: uni0338
Encoding: 135 824 127
Width: 480
Flags: HW
LayerCount: 2
Fore
SplineSet
481 679 m 1
 69 -452 l 1
 -1 -427 l 1
 411 704 l 1
 481 679 l 1
EndSplineSet
EndChar
